<svg xmlns="http://www.w3.org/2000/svg" width="389" height="264" fill="none" viewBox="0 0 389 264">
  <path fill="#151515" fill-rule="evenodd" d="M284.714 47.135c26.201 18.032 45.576 42.669 57.85 68.008 31.45-.645 45.113-26.452 44.563-57.969C386.576 25.598 360.531.447 328.955.998c-27.523.48-41.477 20.177-44.241 46.137Z" clip-rule="evenodd"/>
  <path fill="#151515" d="M158.72 171.692c-15.703 28.009-40.209 37.999-63.957 24.685-23.749-13.315-31.804-34.798-16.1-62.808 15.703-28.009 56.302-51.439 80.05-38.124 18.531 10.389 15.71 48.238.007 76.247Zm66.796 0c15.703 28.009 40.208 37.999 63.957 24.685 23.748-13.315 31.803-34.798 16.1-62.808-15.704-28.009-56.303-51.439-80.051-38.124-18.531 10.389-15.71 48.238-.006 76.247Z"/>
  <path fill="#fff" d="M243.317 148.432c6.217 11.089 15.918 15.043 25.319 9.772 9.402-5.27 12.59-13.775 6.374-24.863-6.217-11.088-22.289-20.364-31.69-15.093-7.336 4.113-6.219 19.096-.003 30.184Zm-107.555 7.932c-3.512 6.265-11.471 7.112-20.872 1.841-9.402-5.271-13.836-11.553-10.324-17.818 3.513-6.266 16.192-9.49 25.594-4.219 7.335 4.113 9.115 13.931 5.602 20.196Z"/>
  <path fill="#151515" d="M184.458 223.9c4.539 5.002 12.401 5.002 16.94 0l10.498-11.571c6.668-7.35 1.453-19.121-8.47-19.121H182.43c-9.923 0-15.138 11.771-8.47 19.121l10.498 11.571Zm26.896 19.266c-9.74 7.277-24.146 7.867-33.237 6.881-2.393-.259-4.868.884-5.582 3.182-4.077 13.114 12.526 11.482 22.12 8.741 8.788-3.418 23.215-10.955 23.036-17.894-.075-2.918-3.998-2.657-6.337-.91Z"/>
  <path fill="#151515" fill-rule="evenodd" d="M102.554 45.648c-25.884 18.487-44.827 43.46-56.658 69.01C14.443 114.559.332 88.996.332 57.476.332 25.895 25.934.293 57.515.293c27.526 0 41.822 19.45 45.039 45.355Z" clip-rule="evenodd"/>
</svg>
