<svg xmlns="http://www.w3.org/2000/svg" width="314" height="405" fill="none" viewBox="0 0 314 405">
  <path fill="#FFF9F2" d="M22.414 41.213c-1.146 0-2.038-.508-2.677-1.525-.638-1.016-.957-2.476-.957-4.379 0-1.903.32-3.35.957-4.343.639-.993 1.53-1.49 2.677-1.49 1.135 0 2.021.497 2.66 1.49.638.993.957 2.44.957 4.343s-.32 3.363-.957 4.38c-.639 1.016-1.525 1.524-2.66 1.524Zm0-1.17c.331 0 .627-.089.887-.266.272-.19.502-.473.691-.851.201-.39.355-.88.461-1.472.107-.602.16-1.318.16-2.145s-.053-1.536-.16-2.127c-.106-.591-.26-1.07-.46-1.436-.19-.378-.42-.656-.692-.833a1.537 1.537 0 0 0-.887-.266c-.33 0-.632.088-.904.266-.272.177-.508.455-.709.833-.189.366-.337.845-.443 1.436-.107.59-.16 1.3-.16 2.127 0 1.655.201 2.86.603 3.617.414.744.952 1.117 1.613 1.117ZM19.4 69v-1.206h2.589v-8.332h-2.057v-.94a9.32 9.32 0 0 0 1.348-.336 5.72 5.72 0 0 0 1.046-.497h1.117v10.105h2.34V69H19.4Zm0 28v-1.206h2.589v-8.332h-2.057v-.94a9.32 9.32 0 0 0 1.348-.336 5.72 5.72 0 0 0 1.046-.497h1.117v10.106h2.34V97H19.4Zm3.014 28.213c-1.146 0-2.038-.508-2.677-1.525-.638-1.016-.957-2.476-.957-4.379 0-1.903.32-3.35.957-4.343.639-.993 1.53-1.489 2.677-1.489 1.135 0 2.021.496 2.66 1.489.638.993.957 2.44.957 4.343s-.32 3.363-.957 4.379c-.639 1.017-1.525 1.525-2.66 1.525Zm0-1.17c.331 0 .627-.089.887-.266.272-.189.502-.473.691-.851.201-.39.355-.881.461-1.472.107-.602.16-1.317.16-2.145 0-.827-.053-1.536-.16-2.127-.106-.591-.26-1.07-.46-1.436-.19-.378-.42-.656-.692-.833a1.532 1.532 0 0 0-.887-.266c-.33 0-.632.088-.904.266-.272.177-.508.455-.709.833-.189.366-.337.845-.443 1.436-.107.591-.16 1.3-.16 2.127 0 1.655.201 2.86.603 3.617.414.744.952 1.117 1.613 1.117Zm0 29.17c-1.146 0-2.038-.508-2.677-1.525-.638-1.016-.957-2.476-.957-4.379 0-1.903.32-3.35.957-4.343.639-.993 1.53-1.489 2.677-1.489 1.135 0 2.021.496 2.66 1.489.638.993.957 2.44.957 4.343s-.32 3.363-.957 4.379c-.639 1.017-1.525 1.525-2.66 1.525Zm0-1.17c.331 0 .627-.089.887-.266.272-.189.502-.473.691-.851.201-.39.355-.881.461-1.472.107-.602.16-1.317.16-2.145 0-.827-.053-1.536-.16-2.127-.106-.591-.26-1.07-.46-1.436-.19-.378-.42-.656-.692-.833a1.532 1.532 0 0 0-.887-.266c-.33 0-.632.088-.904.266-.272.177-.508.455-.709.833-.189.366-.337.845-.443 1.436-.107.591-.16 1.3-.16 2.127 0 1.655.201 2.86.603 3.617.414.744.952 1.117 1.613 1.117ZM19.4 181v-1.206h2.589v-8.332h-2.057v-.939c.52-.095.97-.207 1.348-.337a5.74 5.74 0 0 0 1.046-.497h1.117v10.105h2.34V181H19.4Zm3.014 28.213c-1.146 0-2.038-.508-2.677-1.525-.638-1.016-.957-2.476-.957-4.379 0-1.903.32-3.35.957-4.343.639-.993 1.53-1.489 2.677-1.489 1.135 0 2.021.496 2.66 1.489.638.993.957 2.44.957 4.343s-.32 3.363-.957 4.379c-.639 1.017-1.525 1.525-2.66 1.525Zm0-1.17c.331 0 .627-.089.887-.266.272-.189.502-.473.691-.851.201-.39.355-.881.461-1.472.107-.602.16-1.317.16-2.145 0-.827-.053-1.536-.16-2.127-.106-.591-.26-1.07-.46-1.436-.19-.378-.42-.656-.692-.833a1.532 1.532 0 0 0-.887-.266c-.33 0-.632.088-.904.266-.272.177-.508.455-.709.833-.189.366-.337.845-.443 1.436-.107.591-.16 1.3-.16 2.127 0 1.655.201 2.86.603 3.617.414.744.952 1.117 1.613 1.117ZM19.4 237v-1.206h2.589v-8.332h-2.057v-.939c.52-.095.97-.207 1.348-.337a5.74 5.74 0 0 0 1.046-.497h1.117v10.105h2.34V237H19.4Zm3.014 28.213c-1.146 0-2.038-.508-2.677-1.525-.638-1.016-.957-2.476-.957-4.379 0-1.903.32-3.35.957-4.343.639-.993 1.53-1.489 2.677-1.489 1.135 0 2.021.496 2.66 1.489.638.993.957 2.44.957 4.343s-.32 3.363-.957 4.379c-.639 1.017-1.525 1.525-2.66 1.525Zm0-1.17c.331 0 .627-.089.887-.266.272-.189.502-.473.691-.851.201-.39.355-.881.461-1.472.107-.602.16-1.317.16-2.145 0-.827-.053-1.536-.16-2.127-.106-.591-.26-1.07-.46-1.436-.19-.378-.42-.656-.692-.833a1.532 1.532 0 0 0-.887-.266c-.33 0-.632.088-.904.266-.272.177-.508.455-.709.833-.189.366-.337.845-.443 1.436-.107.591-.16 1.3-.16 2.127 0 1.655.201 2.86.603 3.617.414.744.952 1.117 1.613 1.117Zm0 29.17c-1.146 0-2.038-.508-2.677-1.525-.638-1.016-.957-2.476-.957-4.379 0-1.903.32-3.35.957-4.343.639-.993 1.53-1.489 2.677-1.489 1.135 0 2.021.496 2.66 1.489.638.993.957 2.44.957 4.343s-.32 3.363-.957 4.379c-.639 1.017-1.525 1.525-2.66 1.525Zm0-1.17c.331 0 .627-.089.887-.266.272-.189.502-.473.691-.851.201-.39.355-.881.461-1.472.107-.602.16-1.317.16-2.145 0-.827-.053-1.536-.16-2.127-.106-.591-.26-1.07-.46-1.436-.19-.378-.42-.656-.692-.833a1.532 1.532 0 0 0-.887-.266c-.33 0-.632.088-.904.266-.272.177-.508.455-.709.833-.189.366-.337.845-.443 1.436-.107.591-.16 1.3-.16 2.127 0 1.655.201 2.86.603 3.617.414.744.952 1.117 1.613 1.117Zm0 29.17c-1.146 0-2.038-.508-2.677-1.525-.638-1.016-.957-2.476-.957-4.379 0-1.903.32-3.35.957-4.343.639-.993 1.53-1.489 2.677-1.489 1.135 0 2.021.496 2.66 1.489.638.993.957 2.44.957 4.343s-.32 3.363-.957 4.379c-.639 1.017-1.525 1.525-2.66 1.525Zm0-1.17c.331 0 .627-.089.887-.266.272-.189.502-.473.691-.851.201-.39.355-.881.461-1.472.107-.602.16-1.317.16-2.145 0-.827-.053-1.536-.16-2.127-.106-.591-.26-1.07-.46-1.436-.19-.378-.42-.656-.692-.833a1.532 1.532 0 0 0-.887-.266c-.33 0-.632.088-.904.266-.272.177-.508.455-.709.833-.189.366-.337.845-.443 1.436-.107.591-.16 1.3-.16 2.127 0 1.655.201 2.86.603 3.617.414.744.952 1.117 1.613 1.117ZM19.4 349v-1.206h2.589v-8.332h-2.057v-.939c.52-.095.97-.207 1.348-.337a5.74 5.74 0 0 0 1.046-.497h1.117v10.105h2.34V349H19.4Zm0 28v-1.206h2.589v-8.332h-2.057v-.939c.52-.095.97-.207 1.348-.337a5.74 5.74 0 0 0 1.046-.497h1.117v10.105h2.34V377H19.4ZM47.414 41.213c-1.146 0-2.038-.508-2.677-1.525-.638-1.016-.957-2.476-.957-4.379 0-1.903.32-3.35.957-4.343.639-.993 1.53-1.49 2.677-1.49 1.135 0 2.021.497 2.66 1.49.638.993.957 2.44.957 4.343s-.32 3.363-.957 4.38c-.639 1.016-1.525 1.524-2.66 1.524Zm0-1.17c.331 0 .627-.089.887-.266.272-.19.502-.473.691-.851.201-.39.355-.88.461-1.472.106-.602.16-1.318.16-2.145s-.053-1.536-.16-2.127c-.106-.591-.26-1.07-.46-1.436-.19-.378-.42-.656-.692-.833a1.537 1.537 0 0 0-.887-.266c-.33 0-.632.088-.904.266-.272.177-.508.455-.709.833-.189.366-.337.845-.443 1.436-.106.59-.16 1.3-.16 2.127 0 1.655.201 2.86.603 3.617.414.744.951 1.117 1.613 1.117ZM44.4 69v-1.206h2.589v-8.332h-2.057v-.94a9.32 9.32 0 0 0 1.348-.336 5.72 5.72 0 0 0 1.046-.497h1.117v10.105h2.34V69H44.4Zm0 28v-1.206h2.589v-8.332h-2.057v-.94a9.32 9.32 0 0 0 1.348-.336 5.72 5.72 0 0 0 1.046-.497h1.117v10.106h2.34V97H44.4Zm3.014 28.213c-1.146 0-2.038-.508-2.677-1.525-.638-1.016-.957-2.476-.957-4.379 0-1.903.32-3.35.957-4.343.639-.993 1.53-1.489 2.677-1.489 1.135 0 2.021.496 2.66 1.489.638.993.957 2.44.957 4.343s-.32 3.363-.957 4.379c-.639 1.017-1.525 1.525-2.66 1.525Zm0-1.17c.331 0 .627-.089.887-.266.272-.189.502-.473.691-.851.201-.39.355-.881.461-1.472.106-.602.16-1.317.16-2.145 0-.827-.053-1.536-.16-2.127-.106-.591-.26-1.07-.46-1.436-.19-.378-.42-.656-.692-.833a1.532 1.532 0 0 0-.887-.266c-.33 0-.632.088-.904.266-.272.177-.508.455-.709.833-.189.366-.337.845-.443 1.436-.106.591-.16 1.3-.16 2.127 0 1.655.201 2.86.603 3.617.414.744.951 1.117 1.613 1.117Zm0 29.17c-1.146 0-2.038-.508-2.677-1.525-.638-1.016-.957-2.476-.957-4.379 0-1.903.32-3.35.957-4.343.639-.993 1.53-1.489 2.677-1.489 1.135 0 2.021.496 2.66 1.489.638.993.957 2.44.957 4.343s-.32 3.363-.957 4.379c-.639 1.017-1.525 1.525-2.66 1.525Zm0-1.17c.331 0 .627-.089.887-.266.272-.189.502-.473.691-.851.201-.39.355-.881.461-1.472.106-.602.16-1.317.16-2.145 0-.827-.053-1.536-.16-2.127-.106-.591-.26-1.07-.46-1.436-.19-.378-.42-.656-.692-.833a1.532 1.532 0 0 0-.887-.266c-.33 0-.632.088-.904.266-.272.177-.508.455-.709.833-.189.366-.337.845-.443 1.436-.106.591-.16 1.3-.16 2.127 0 1.655.201 2.86.603 3.617.414.744.951 1.117 1.613 1.117ZM44.4 181v-1.206h2.589v-8.332h-2.057v-.939c.52-.095.97-.207 1.348-.337a5.74 5.74 0 0 0 1.046-.497h1.117v10.105h2.34V181H44.4Zm3.014 28.213c-1.146 0-2.038-.508-2.677-1.525-.638-1.016-.957-2.476-.957-4.379 0-1.903.32-3.35.957-4.343.639-.993 1.53-1.489 2.677-1.489 1.135 0 2.021.496 2.66 1.489.638.993.957 2.44.957 4.343s-.32 3.363-.957 4.379c-.639 1.017-1.525 1.525-2.66 1.525Zm0-1.17c.331 0 .627-.089.887-.266.272-.189.502-.473.691-.851.201-.39.355-.881.461-1.472.106-.602.16-1.317.16-2.145 0-.827-.053-1.536-.16-2.127-.106-.591-.26-1.07-.46-1.436-.19-.378-.42-.656-.692-.833a1.532 1.532 0 0 0-.887-.266c-.33 0-.632.088-.904.266-.272.177-.508.455-.709.833-.189.366-.337.845-.443 1.436-.106.591-.16 1.3-.16 2.127 0 1.655.201 2.86.603 3.617.414.744.951 1.117 1.613 1.117ZM44.4 237v-1.206h2.589v-8.332h-2.057v-.939c.52-.095.97-.207 1.348-.337a5.74 5.74 0 0 0 1.046-.497h1.117v10.105h2.34V237H44.4Zm3.014 28.213c-1.146 0-2.038-.508-2.677-1.525-.638-1.016-.957-2.476-.957-4.379 0-1.903.32-3.35.957-4.343.639-.993 1.53-1.489 2.677-1.489 1.135 0 2.021.496 2.66 1.489.638.993.957 2.44.957 4.343s-.32 3.363-.957 4.379c-.639 1.017-1.525 1.525-2.66 1.525Zm0-1.17c.331 0 .627-.089.887-.266.272-.189.502-.473.691-.851.201-.39.355-.881.461-1.472.106-.602.16-1.317.16-2.145 0-.827-.053-1.536-.16-2.127-.106-.591-.26-1.07-.46-1.436-.19-.378-.42-.656-.692-.833a1.532 1.532 0 0 0-.887-.266c-.33 0-.632.088-.904.266-.272.177-.508.455-.709.833-.189.366-.337.845-.443 1.436-.106.591-.16 1.3-.16 2.127 0 1.655.201 2.86.603 3.617.414.744.951 1.117 1.613 1.117Zm0 29.17c-1.146 0-2.038-.508-2.677-1.525-.638-1.016-.957-2.476-.957-4.379 0-1.903.32-3.35.957-4.343.639-.993 1.53-1.489 2.677-1.489 1.135 0 2.021.496 2.66 1.489.638.993.957 2.44.957 4.343s-.32 3.363-.957 4.379c-.639 1.017-1.525 1.525-2.66 1.525Zm0-1.17c.331 0 .627-.089.887-.266.272-.189.502-.473.691-.851.201-.39.355-.881.461-1.472.106-.602.16-1.317.16-2.145 0-.827-.053-1.536-.16-2.127-.106-.591-.26-1.07-.46-1.436-.19-.378-.42-.656-.692-.833a1.532 1.532 0 0 0-.887-.266c-.33 0-.632.088-.904.266-.272.177-.508.455-.709.833-.189.366-.337.845-.443 1.436-.106.591-.16 1.3-.16 2.127 0 1.655.201 2.86.603 3.617.414.744.951 1.117 1.613 1.117Zm0 29.17c-1.146 0-2.038-.508-2.677-1.525-.638-1.016-.957-2.476-.957-4.379 0-1.903.32-3.35.957-4.343.639-.993 1.53-1.489 2.677-1.489 1.135 0 2.021.496 2.66 1.489.638.993.957 2.44.957 4.343s-.32 3.363-.957 4.379c-.639 1.017-1.525 1.525-2.66 1.525Zm0-1.17c.331 0 .627-.089.887-.266.272-.189.502-.473.691-.851.201-.39.355-.881.461-1.472.106-.602.16-1.317.16-2.145 0-.827-.053-1.536-.16-2.127-.106-.591-.26-1.07-.46-1.436-.19-.378-.42-.656-.692-.833a1.532 1.532 0 0 0-.887-.266c-.33 0-.632.088-.904.266-.272.177-.508.455-.709.833-.189.366-.337.845-.443 1.436-.106.591-.16 1.3-.16 2.127 0 1.655.201 2.86.603 3.617.414.744.951 1.117 1.613 1.117ZM44.4 349v-1.206h2.589v-8.332h-2.057v-.939c.52-.095.97-.207 1.348-.337a5.74 5.74 0 0 0 1.046-.497h1.117v10.105h2.34V349H44.4Zm0 28v-1.206h2.589v-8.332h-2.057v-.939c.52-.095.97-.207 1.348-.337a5.74 5.74 0 0 0 1.046-.497h1.117v10.105h2.34V377H44.4ZM72.414 61.213c-1.146 0-2.038-.508-2.677-1.525-.638-1.016-.957-2.476-.957-4.379 0-1.903.32-3.35.957-4.343.639-.993 1.53-1.49 2.677-1.49 1.135 0 2.021.497 2.66 1.49.638.993.957 2.44.957 4.343s-.32 3.363-.957 4.38c-.639 1.016-1.525 1.524-2.66 1.524Zm0-1.17c.331 0 .627-.089.887-.266.272-.19.502-.473.691-.851.201-.39.355-.88.461-1.472.106-.602.16-1.318.16-2.145s-.053-1.536-.16-2.127c-.106-.591-.26-1.07-.46-1.436-.19-.378-.42-.656-.692-.833a1.537 1.537 0 0 0-.887-.266c-.33 0-.632.088-.904.266-.272.177-.508.455-.709.833-.189.366-.337.845-.443 1.436-.107.59-.16 1.3-.16 2.127 0 1.655.201 2.86.603 3.617.414.744.951 1.117 1.613 1.117ZM69.4 89v-1.206h2.589v-8.332h-2.057v-.94a9.32 9.32 0 0 0 1.348-.336 5.72 5.72 0 0 0 1.046-.497h1.117v10.106h2.34V89H69.4Zm0 28v-1.206h2.589v-8.332h-2.057v-.939c.52-.095.97-.207 1.348-.337a5.74 5.74 0 0 0 1.046-.497h1.117v10.105h2.34V117H69.4Zm3.014 28.213c-1.146 0-2.038-.508-2.677-1.525-.638-1.016-.957-2.476-.957-4.379 0-1.903.32-3.35.957-4.343.639-.993 1.53-1.489 2.677-1.489 1.135 0 2.021.496 2.66 1.489.638.993.957 2.44.957 4.343s-.32 3.363-.957 4.379c-.639 1.017-1.525 1.525-2.66 1.525Zm0-1.17c.331 0 .627-.089.887-.266.272-.189.502-.473.691-.851.201-.39.355-.881.461-1.472.106-.602.16-1.317.16-2.145 0-.827-.053-1.536-.16-2.127-.106-.591-.26-1.07-.46-1.436-.19-.378-.42-.656-.692-.833a1.532 1.532 0 0 0-.887-.266c-.33 0-.632.088-.904.266-.272.177-.508.455-.709.833-.189.366-.337.845-.443 1.436-.107.591-.16 1.3-.16 2.127 0 1.655.201 2.86.603 3.617.414.744.951 1.117 1.613 1.117Zm0 29.17c-1.146 0-2.038-.508-2.677-1.525-.638-1.016-.957-2.476-.957-4.379 0-1.903.32-3.35.957-4.343.639-.993 1.53-1.489 2.677-1.489 1.135 0 2.021.496 2.66 1.489.638.993.957 2.44.957 4.343s-.32 3.363-.957 4.379c-.639 1.017-1.525 1.525-2.66 1.525Zm0-1.17c.331 0 .627-.089.887-.266.272-.189.502-.473.691-.851.201-.39.355-.881.461-1.472.106-.602.16-1.317.16-2.145 0-.827-.053-1.536-.16-2.127-.106-.591-.26-1.07-.46-1.436-.19-.378-.42-.656-.692-.833a1.532 1.532 0 0 0-.887-.266c-.33 0-.632.088-.904.266-.272.177-.508.455-.709.833-.189.366-.337.845-.443 1.436-.107.591-.16 1.3-.16 2.127 0 1.655.201 2.86.603 3.617.414.744.951 1.117 1.613 1.117ZM69.4 201v-1.206h2.589v-8.332h-2.057v-.939c.52-.095.97-.207 1.348-.337a5.74 5.74 0 0 0 1.046-.497h1.117v10.105h2.34V201H69.4Zm3.014 28.213c-1.146 0-2.038-.508-2.677-1.525-.638-1.016-.957-2.476-.957-4.379 0-1.903.32-3.35.957-4.343.639-.993 1.53-1.489 2.677-1.489 1.135 0 2.021.496 2.66 1.489.638.993.957 2.44.957 4.343s-.32 3.363-.957 4.379c-.639 1.017-1.525 1.525-2.66 1.525Zm0-1.17c.331 0 .627-.089.887-.266.272-.189.502-.473.691-.851.201-.39.355-.881.461-1.472.106-.602.16-1.317.16-2.145 0-.827-.053-1.536-.16-2.127-.106-.591-.26-1.07-.46-1.436-.19-.378-.42-.656-.692-.833a1.532 1.532 0 0 0-.887-.266c-.33 0-.632.088-.904.266-.272.177-.508.455-.709.833-.189.366-.337.845-.443 1.436-.107.591-.16 1.3-.16 2.127 0 1.655.201 2.86.603 3.617.414.744.951 1.117 1.613 1.117ZM69.4 257v-1.206h2.589v-8.332h-2.057v-.939c.52-.095.97-.207 1.348-.337a5.74 5.74 0 0 0 1.046-.497h1.117v10.105h2.34V257H69.4Zm3.014 28.213c-1.146 0-2.038-.508-2.677-1.525-.638-1.016-.957-2.476-.957-4.379 0-1.903.32-3.35.957-4.343.639-.993 1.53-1.489 2.677-1.489 1.135 0 2.021.496 2.66 1.489.638.993.957 2.44.957 4.343s-.32 3.363-.957 4.379c-.639 1.017-1.525 1.525-2.66 1.525Zm0-1.17c.331 0 .627-.089.887-.266.272-.189.502-.473.691-.851.201-.39.355-.881.461-1.472.106-.602.16-1.317.16-2.145 0-.827-.053-1.536-.16-2.127-.106-.591-.26-1.07-.46-1.436-.19-.378-.42-.656-.692-.833a1.532 1.532 0 0 0-.887-.266c-.33 0-.632.088-.904.266-.272.177-.508.455-.709.833-.189.366-.337.845-.443 1.436-.107.591-.16 1.3-.16 2.127 0 1.655.201 2.86.603 3.617.414.744.951 1.117 1.613 1.117Zm0 29.17c-1.146 0-2.038-.508-2.677-1.525-.638-1.016-.957-2.476-.957-4.379 0-1.903.32-3.35.957-4.343.639-.993 1.53-1.489 2.677-1.489 1.135 0 2.021.496 2.66 1.489.638.993.957 2.44.957 4.343s-.32 3.363-.957 4.379c-.639 1.017-1.525 1.525-2.66 1.525Zm0-1.17c.331 0 .627-.089.887-.266.272-.189.502-.473.691-.851.201-.39.355-.881.461-1.472.106-.602.16-1.317.16-2.145 0-.827-.053-1.536-.16-2.127-.106-.591-.26-1.07-.46-1.436-.19-.378-.42-.656-.692-.833a1.532 1.532 0 0 0-.887-.266c-.33 0-.632.088-.904.266-.272.177-.508.455-.709.833-.189.366-.337.845-.443 1.436-.107.591-.16 1.3-.16 2.127 0 1.655.201 2.86.603 3.617.414.744.951 1.117 1.613 1.117Zm0 29.17c-1.146 0-2.038-.508-2.677-1.525-.638-1.016-.957-2.476-.957-4.379 0-1.903.32-3.35.957-4.343.639-.993 1.53-1.489 2.677-1.489 1.135 0 2.021.496 2.66 1.489.638.993.957 2.44.957 4.343s-.32 3.363-.957 4.379c-.639 1.017-1.525 1.525-2.66 1.525Zm0-1.17c.331 0 .627-.089.887-.266.272-.189.502-.473.691-.851.201-.39.355-.881.461-1.472.106-.602.16-1.317.16-2.145 0-.827-.053-1.536-.16-2.127-.106-.591-.26-1.07-.46-1.436-.19-.378-.42-.656-.692-.833a1.532 1.532 0 0 0-.887-.266c-.33 0-.632.088-.904.266-.272.177-.508.455-.709.833-.189.366-.337.845-.443 1.436-.107.591-.16 1.3-.16 2.127 0 1.655.201 2.86.603 3.617.414.744.951 1.117 1.613 1.117ZM69.4 369v-1.206h2.589v-8.332h-2.057v-.939c.52-.095.97-.207 1.348-.337a5.74 5.74 0 0 0 1.046-.497h1.117v10.105h2.34V369H69.4Zm0 28v-1.206h2.589v-8.332h-2.057v-.939c.52-.095.97-.207 1.348-.337a5.74 5.74 0 0 0 1.046-.497h1.117v10.105h2.34V397H69.4ZM97.414 61.213c-1.146 0-2.038-.508-2.677-1.525-.638-1.016-.957-2.476-.957-4.379 0-1.903.32-3.35.957-4.343.639-.993 1.53-1.49 2.677-1.49 1.135 0 2.021.497 2.66 1.49.638.993.957 2.44.957 4.343s-.319 3.363-.957 4.38c-.639 1.016-1.525 1.524-2.66 1.524Zm0-1.17c.331 0 .627-.089.887-.266.272-.19.502-.473.691-.851.201-.39.355-.88.461-1.472.106-.602.16-1.318.16-2.145s-.053-1.536-.16-2.127c-.106-.591-.26-1.07-.46-1.436-.19-.378-.42-.656-.692-.833a1.537 1.537 0 0 0-.887-.266c-.33 0-.632.088-.904.266-.272.177-.508.455-.709.833-.189.366-.337.845-.443 1.436-.107.59-.16 1.3-.16 2.127 0 1.655.201 2.86.603 3.617.414.744.951 1.117 1.613 1.117ZM94.4 89v-1.206h2.589v-8.332h-2.057v-.94a9.32 9.32 0 0 0 1.348-.336 5.72 5.72 0 0 0 1.046-.497h1.117v10.106h2.34V89H94.4Zm0 28v-1.206h2.589v-8.332h-2.057v-.939c.52-.095.97-.207 1.348-.337a5.74 5.74 0 0 0 1.046-.497h1.117v10.105h2.34V117H94.4Zm3.014 28.213c-1.146 0-2.038-.508-2.677-1.525-.638-1.016-.957-2.476-.957-4.379 0-1.903.32-3.35.957-4.343.639-.993 1.53-1.489 2.677-1.489 1.135 0 2.021.496 2.66 1.489.638.993.957 2.44.957 4.343s-.319 3.363-.957 4.379c-.639 1.017-1.525 1.525-2.66 1.525Zm0-1.17c.331 0 .627-.089.887-.266.272-.189.502-.473.691-.851.201-.39.355-.881.461-1.472.106-.602.16-1.317.16-2.145 0-.827-.053-1.536-.16-2.127-.106-.591-.26-1.07-.46-1.436-.19-.378-.42-.656-.692-.833a1.532 1.532 0 0 0-.887-.266c-.33 0-.632.088-.904.266-.272.177-.508.455-.709.833-.189.366-.337.845-.443 1.436-.107.591-.16 1.3-.16 2.127 0 1.655.201 2.86.603 3.617.414.744.951 1.117 1.613 1.117Zm0 29.17c-1.146 0-2.038-.508-2.677-1.525-.638-1.016-.957-2.476-.957-4.379 0-1.903.32-3.35.957-4.343.639-.993 1.53-1.489 2.677-1.489 1.135 0 2.021.496 2.66 1.489.638.993.957 2.44.957 4.343s-.319 3.363-.957 4.379c-.639 1.017-1.525 1.525-2.66 1.525Zm0-1.17c.331 0 .627-.089.887-.266.272-.189.502-.473.691-.851.201-.39.355-.881.461-1.472.106-.602.16-1.317.16-2.145 0-.827-.053-1.536-.16-2.127-.106-.591-.26-1.07-.46-1.436-.19-.378-.42-.656-.692-.833a1.532 1.532 0 0 0-.887-.266c-.33 0-.632.088-.904.266-.272.177-.508.455-.709.833-.189.366-.337.845-.443 1.436-.107.591-.16 1.3-.16 2.127 0 1.655.201 2.86.603 3.617.414.744.951 1.117 1.613 1.117ZM94.4 201v-1.206h2.589v-8.332h-2.057v-.939c.52-.095.97-.207 1.348-.337a5.74 5.74 0 0 0 1.046-.497h1.117v10.105h2.34V201H94.4Zm3.014 28.213c-1.146 0-2.038-.508-2.677-1.525-.638-1.016-.957-2.476-.957-4.379 0-1.903.32-3.35.957-4.343.639-.993 1.53-1.489 2.677-1.489 1.135 0 2.021.496 2.66 1.489.638.993.957 2.44.957 4.343s-.319 3.363-.957 4.379c-.639 1.017-1.525 1.525-2.66 1.525Zm0-1.17c.331 0 .627-.089.887-.266.272-.189.502-.473.691-.851.201-.39.355-.881.461-1.472.106-.602.16-1.317.16-2.145 0-.827-.053-1.536-.16-2.127-.106-.591-.26-1.07-.46-1.436-.19-.378-.42-.656-.692-.833a1.532 1.532 0 0 0-.887-.266c-.33 0-.632.088-.904.266-.272.177-.508.455-.709.833-.189.366-.337.845-.443 1.436-.107.591-.16 1.3-.16 2.127 0 1.655.201 2.86.603 3.617.414.744.951 1.117 1.613 1.117ZM94.4 257v-1.206h2.589v-8.332h-2.057v-.939c.52-.095.97-.207 1.348-.337a5.74 5.74 0 0 0 1.046-.497h1.117v10.105h2.34V257H94.4Zm3.014 28.213c-1.146 0-2.038-.508-2.677-1.525-.638-1.016-.957-2.476-.957-4.379 0-1.903.32-3.35.957-4.343.639-.993 1.53-1.489 2.677-1.489 1.135 0 2.021.496 2.66 1.489.638.993.957 2.44.957 4.343s-.319 3.363-.957 4.379c-.639 1.017-1.525 1.525-2.66 1.525Zm0-1.17c.331 0 .627-.089.887-.266.272-.189.502-.473.691-.851.201-.39.355-.881.461-1.472.106-.602.16-1.317.16-2.145 0-.827-.053-1.536-.16-2.127-.106-.591-.26-1.07-.46-1.436-.19-.378-.42-.656-.692-.833a1.532 1.532 0 0 0-.887-.266c-.33 0-.632.088-.904.266-.272.177-.508.455-.709.833-.189.366-.337.845-.443 1.436-.107.591-.16 1.3-.16 2.127 0 1.655.201 2.86.603 3.617.414.744.951 1.117 1.613 1.117Zm0 29.17c-1.146 0-2.038-.508-2.677-1.525-.638-1.016-.957-2.476-.957-4.379 0-1.903.32-3.35.957-4.343.639-.993 1.53-1.489 2.677-1.489 1.135 0 2.021.496 2.66 1.489.638.993.957 2.44.957 4.343s-.319 3.363-.957 4.379c-.639 1.017-1.525 1.525-2.66 1.525Zm0-1.17c.331 0 .627-.089.887-.266.272-.189.502-.473.691-.851.201-.39.355-.881.461-1.472.106-.602.16-1.317.16-2.145 0-.827-.053-1.536-.16-2.127-.106-.591-.26-1.07-.46-1.436-.19-.378-.42-.656-.692-.833a1.532 1.532 0 0 0-.887-.266c-.33 0-.632.088-.904.266-.272.177-.508.455-.709.833-.189.366-.337.845-.443 1.436-.107.591-.16 1.3-.16 2.127 0 1.655.201 2.86.603 3.617.414.744.951 1.117 1.613 1.117Zm0 29.17c-1.146 0-2.038-.508-2.677-1.525-.638-1.016-.957-2.476-.957-4.379 0-1.903.32-3.35.957-4.343.639-.993 1.53-1.489 2.677-1.489 1.135 0 2.021.496 2.66 1.489.638.993.957 2.44.957 4.343s-.319 3.363-.957 4.379c-.639 1.017-1.525 1.525-2.66 1.525Zm0-1.17c.331 0 .627-.089.887-.266.272-.189.502-.473.691-.851.201-.39.355-.881.461-1.472.106-.602.16-1.317.16-2.145 0-.827-.053-1.536-.16-2.127-.106-.591-.26-1.07-.46-1.436-.19-.378-.42-.656-.692-.833a1.532 1.532 0 0 0-.887-.266c-.33 0-.632.088-.904.266-.272.177-.508.455-.709.833-.189.366-.337.845-.443 1.436-.107.591-.16 1.3-.16 2.127 0 1.655.201 2.86.603 3.617.414.744.951 1.117 1.613 1.117ZM94.4 369v-1.206h2.589v-8.332h-2.057v-.939c.52-.095.97-.207 1.348-.337a5.74 5.74 0 0 0 1.046-.497h1.117v10.105h2.34V369H94.4Zm0 28v-1.206h2.589v-8.332h-2.057v-.939c.52-.095.97-.207 1.348-.337a5.74 5.74 0 0 0 1.046-.497h1.117v10.105h2.34V397H94.4Zm28.014-355.787c-1.146 0-2.038-.508-2.677-1.525-.638-1.016-.957-2.476-.957-4.379 0-1.903.319-3.35.957-4.343.639-.993 1.531-1.49 2.677-1.49 1.135 0 2.021.497 2.66 1.49.638.993.957 2.44.957 4.343s-.319 3.363-.957 4.38c-.639 1.016-1.525 1.524-2.66 1.524Zm0-1.17c.331 0 .627-.089.887-.266.272-.19.502-.473.691-.851.201-.39.355-.88.461-1.472.106-.602.16-1.318.16-2.145s-.054-1.536-.16-2.127c-.106-.591-.26-1.07-.461-1.436-.189-.378-.419-.656-.691-.833a1.538 1.538 0 0 0-.887-.266 1.62 1.62 0 0 0-.904.266c-.272.177-.508.455-.709.833-.189.366-.337.845-.443 1.436-.107.59-.16 1.3-.16 2.127 0 1.655.201 2.86.603 3.617.414.744.951 1.117 1.613 1.117ZM119.401 69v-1.206h2.588v-8.332h-2.057v-.94c.52-.094.97-.206 1.348-.336.39-.142.738-.308 1.046-.497h1.117v10.105h2.34V69h-6.382Zm0 28v-1.206h2.588v-8.332h-2.057v-.94c.52-.094.97-.206 1.348-.336.39-.142.738-.308 1.046-.497h1.117v10.106h2.34V97h-6.382Zm3.013 28.213c-1.146 0-2.038-.508-2.677-1.525-.638-1.016-.957-2.476-.957-4.379 0-1.903.319-3.35.957-4.343.639-.993 1.531-1.489 2.677-1.489 1.135 0 2.021.496 2.66 1.489.638.993.957 2.44.957 4.343s-.319 3.363-.957 4.379c-.639 1.017-1.525 1.525-2.66 1.525Zm0-1.17c.331 0 .627-.089.887-.266.272-.189.502-.473.691-.851.201-.39.355-.881.461-1.472.106-.602.16-1.317.16-2.145 0-.827-.054-1.536-.16-2.127-.106-.591-.26-1.07-.461-1.436-.189-.378-.419-.656-.691-.833a1.533 1.533 0 0 0-.887-.266c-.331 0-.632.088-.904.266-.272.177-.508.455-.709.833-.189.366-.337.845-.443 1.436-.107.591-.16 1.3-.16 2.127 0 1.655.201 2.86.603 3.617.414.744.951 1.117 1.613 1.117Zm0 29.17c-1.146 0-2.038-.508-2.677-1.525-.638-1.016-.957-2.476-.957-4.379 0-1.903.319-3.35.957-4.343.639-.993 1.531-1.489 2.677-1.489 1.135 0 2.021.496 2.66 1.489.638.993.957 2.44.957 4.343s-.319 3.363-.957 4.379c-.639 1.017-1.525 1.525-2.66 1.525Zm0-1.17c.331 0 .627-.089.887-.266.272-.189.502-.473.691-.851.201-.39.355-.881.461-1.472.106-.602.16-1.317.16-2.145 0-.827-.054-1.536-.16-2.127-.106-.591-.26-1.07-.461-1.436-.189-.378-.419-.656-.691-.833a1.533 1.533 0 0 0-.887-.266c-.331 0-.632.088-.904.266-.272.177-.508.455-.709.833-.189.366-.337.845-.443 1.436-.107.591-.16 1.3-.16 2.127 0 1.655.201 2.86.603 3.617.414.744.951 1.117 1.613 1.117ZM119.401 181v-1.206h2.588v-8.332h-2.057v-.939c.52-.095.97-.207 1.348-.337.39-.142.738-.308 1.046-.497h1.117v10.105h2.34V181h-6.382Zm3.013 28.213c-1.146 0-2.038-.508-2.677-1.525-.638-1.016-.957-2.476-.957-4.379 0-1.903.319-3.35.957-4.343.639-.993 1.531-1.489 2.677-1.489 1.135 0 2.021.496 2.66 1.489.638.993.957 2.44.957 4.343s-.319 3.363-.957 4.379c-.639 1.017-1.525 1.525-2.66 1.525Zm0-1.17c.331 0 .627-.089.887-.266.272-.189.502-.473.691-.851.201-.39.355-.881.461-1.472.106-.602.16-1.317.16-2.145 0-.827-.054-1.536-.16-2.127-.106-.591-.26-1.07-.461-1.436-.189-.378-.419-.656-.691-.833a1.533 1.533 0 0 0-.887-.266c-.331 0-.632.088-.904.266-.272.177-.508.455-.709.833-.189.366-.337.845-.443 1.436-.107.591-.16 1.3-.16 2.127 0 1.655.201 2.86.603 3.617.414.744.951 1.117 1.613 1.117ZM119.401 237v-1.206h2.588v-8.332h-2.057v-.939c.52-.095.97-.207 1.348-.337.39-.142.738-.308 1.046-.497h1.117v10.105h2.34V237h-6.382Zm3.013 28.213c-1.146 0-2.038-.508-2.677-1.525-.638-1.016-.957-2.476-.957-4.379 0-1.903.319-3.35.957-4.343.639-.993 1.531-1.489 2.677-1.489 1.135 0 2.021.496 2.66 1.489.638.993.957 2.44.957 4.343s-.319 3.363-.957 4.379c-.639 1.017-1.525 1.525-2.66 1.525Zm0-1.17c.331 0 .627-.089.887-.266.272-.189.502-.473.691-.851.201-.39.355-.881.461-1.472.106-.602.16-1.317.16-2.145 0-.827-.054-1.536-.16-2.127-.106-.591-.26-1.07-.461-1.436-.189-.378-.419-.656-.691-.833a1.533 1.533 0 0 0-.887-.266c-.331 0-.632.088-.904.266-.272.177-.508.455-.709.833-.189.366-.337.845-.443 1.436-.107.591-.16 1.3-.16 2.127 0 1.655.201 2.86.603 3.617.414.744.951 1.117 1.613 1.117Zm0 29.17c-1.146 0-2.038-.508-2.677-1.525-.638-1.016-.957-2.476-.957-4.379 0-1.903.319-3.35.957-4.343.639-.993 1.531-1.489 2.677-1.489 1.135 0 2.021.496 2.66 1.489.638.993.957 2.44.957 4.343s-.319 3.363-.957 4.379c-.639 1.017-1.525 1.525-2.66 1.525Zm0-1.17c.331 0 .627-.089.887-.266.272-.189.502-.473.691-.851.201-.39.355-.881.461-1.472.106-.602.16-1.317.16-2.145 0-.827-.054-1.536-.16-2.127-.106-.591-.26-1.07-.461-1.436-.189-.378-.419-.656-.691-.833a1.533 1.533 0 0 0-.887-.266c-.331 0-.632.088-.904.266-.272.177-.508.455-.709.833-.189.366-.337.845-.443 1.436-.107.591-.16 1.3-.16 2.127 0 1.655.201 2.86.603 3.617.414.744.951 1.117 1.613 1.117Zm0 29.17c-1.146 0-2.038-.508-2.677-1.525-.638-1.016-.957-2.476-.957-4.379 0-1.903.319-3.35.957-4.343.639-.993 1.531-1.489 2.677-1.489 1.135 0 2.021.496 2.66 1.489.638.993.957 2.44.957 4.343s-.319 3.363-.957 4.379c-.639 1.017-1.525 1.525-2.66 1.525Zm0-1.17c.331 0 .627-.089.887-.266.272-.189.502-.473.691-.851.201-.39.355-.881.461-1.472.106-.602.16-1.317.16-2.145 0-.827-.054-1.536-.16-2.127-.106-.591-.26-1.07-.461-1.436-.189-.378-.419-.656-.691-.833a1.533 1.533 0 0 0-.887-.266c-.331 0-.632.088-.904.266-.272.177-.508.455-.709.833-.189.366-.337.845-.443 1.436-.107.591-.16 1.3-.16 2.127 0 1.655.201 2.86.603 3.617.414.744.951 1.117 1.613 1.117ZM119.401 349v-1.206h2.588v-8.332h-2.057v-.939c.52-.095.97-.207 1.348-.337.39-.142.738-.308 1.046-.497h1.117v10.105h2.34V349h-6.382Zm0 28v-1.206h2.588v-8.332h-2.057v-.939c.52-.095.97-.207 1.348-.337.39-.142.738-.308 1.046-.497h1.117v10.105h2.34V377h-6.382Zm28.013-356.787c-1.146 0-2.038-.509-2.677-1.525-.638-1.016-.957-2.476-.957-4.379 0-1.903.319-3.35.957-4.343.639-.993 1.531-1.49 2.677-1.49 1.135 0 2.021.497 2.66 1.49.638.993.957 2.44.957 4.343s-.319 3.363-.957 4.38c-.639 1.015-1.525 1.524-2.66 1.524Zm0-1.17c.331 0 .627-.089.887-.266.272-.19.502-.473.691-.851.201-.39.355-.88.461-1.472.106-.602.16-1.318.16-2.145s-.054-1.536-.16-2.127c-.106-.591-.26-1.07-.461-1.436-.189-.378-.419-.656-.691-.833a1.538 1.538 0 0 0-.887-.266 1.62 1.62 0 0 0-.904.266c-.272.177-.508.455-.709.833-.189.366-.337.845-.443 1.436-.107.59-.16 1.3-.16 2.127 0 1.655.201 2.86.603 3.617.414.744.951 1.117 1.613 1.117ZM144.401 48v-1.206h2.588v-8.332h-2.057v-.94c.52-.094.97-.206 1.348-.336.39-.142.738-.308 1.046-.497h1.117v10.105h2.34V48h-6.382Zm0 28v-1.206h2.588v-8.332h-2.057v-.94c.52-.094.97-.206 1.348-.336.39-.142.738-.308 1.046-.497h1.117v10.106h2.34V76h-6.382Zm3.013 28.213c-1.146 0-2.038-.508-2.677-1.525-.638-1.016-.957-2.476-.957-4.379 0-1.903.319-3.35.957-4.343.639-.993 1.531-1.49 2.677-1.49 1.135 0 2.021.497 2.66 1.49.638.993.957 2.44.957 4.343s-.319 3.363-.957 4.379c-.639 1.017-1.525 1.525-2.66 1.525Zm0-1.17c.331 0 .627-.089.887-.266.272-.189.502-.473.691-.851.201-.39.355-.881.461-1.472.106-.602.16-1.317.16-2.145 0-.827-.054-1.536-.16-2.127-.106-.591-.26-1.07-.461-1.436-.189-.378-.419-.656-.691-.833a1.538 1.538 0 0 0-.887-.266 1.62 1.62 0 0 0-.904.266c-.272.177-.508.455-.709.833-.189.366-.337.845-.443 1.436-.107.59-.16 1.3-.16 2.127 0 1.655.201 2.86.603 3.617.414.744.951 1.117 1.613 1.117Zm0 29.17c-1.146 0-2.038-.508-2.677-1.525-.638-1.016-.957-2.476-.957-4.379 0-1.903.319-3.35.957-4.343.639-.993 1.531-1.489 2.677-1.489 1.135 0 2.021.496 2.66 1.489.638.993.957 2.44.957 4.343s-.319 3.363-.957 4.379c-.639 1.017-1.525 1.525-2.66 1.525Zm0-1.17c.331 0 .627-.089.887-.266.272-.189.502-.473.691-.851.201-.39.355-.881.461-1.472.106-.602.16-1.317.16-2.145 0-.827-.054-1.536-.16-2.127-.106-.591-.26-1.07-.461-1.436-.189-.378-.419-.656-.691-.833a1.533 1.533 0 0 0-.887-.266c-.331 0-.632.088-.904.266-.272.177-.508.455-.709.833-.189.366-.337.845-.443 1.436-.107.591-.16 1.3-.16 2.127 0 1.655.201 2.86.603 3.617.414.744.951 1.117 1.613 1.117ZM144.401 160v-1.206h2.588v-8.332h-2.057v-.939c.52-.095.97-.207 1.348-.337.39-.142.738-.308 1.046-.497h1.117v10.105h2.34V160h-6.382Zm3.013 28.213c-1.146 0-2.038-.508-2.677-1.525-.638-1.016-.957-2.476-.957-4.379 0-1.903.319-3.35.957-4.343.639-.993 1.531-1.489 2.677-1.489 1.135 0 2.021.496 2.66 1.489.638.993.957 2.44.957 4.343s-.319 3.363-.957 4.379c-.639 1.017-1.525 1.525-2.66 1.525Zm0-1.17c.331 0 .627-.089.887-.266.272-.189.502-.473.691-.851.201-.39.355-.881.461-1.472.106-.602.16-1.317.16-2.145 0-.827-.054-1.536-.16-2.127-.106-.591-.26-1.07-.461-1.436-.189-.378-.419-.656-.691-.833a1.533 1.533 0 0 0-.887-.266c-.331 0-.632.088-.904.266-.272.177-.508.455-.709.833-.189.366-.337.845-.443 1.436-.107.591-.16 1.3-.16 2.127 0 1.655.201 2.86.603 3.617.414.744.951 1.117 1.613 1.117ZM144.401 216v-1.206h2.588v-8.332h-2.057v-.939c.52-.095.97-.207 1.348-.337.39-.142.738-.308 1.046-.497h1.117v10.105h2.34V216h-6.382Zm3.013 28.213c-1.146 0-2.038-.508-2.677-1.525-.638-1.016-.957-2.476-.957-4.379 0-1.903.319-3.35.957-4.343.639-.993 1.531-1.489 2.677-1.489 1.135 0 2.021.496 2.66 1.489.638.993.957 2.44.957 4.343s-.319 3.363-.957 4.379c-.639 1.017-1.525 1.525-2.66 1.525Zm0-1.17c.331 0 .627-.089.887-.266.272-.189.502-.473.691-.851.201-.39.355-.881.461-1.472.106-.602.16-1.317.16-2.145 0-.827-.054-1.536-.16-2.127-.106-.591-.26-1.07-.461-1.436-.189-.378-.419-.656-.691-.833a1.533 1.533 0 0 0-.887-.266c-.331 0-.632.088-.904.266-.272.177-.508.455-.709.833-.189.366-.337.845-.443 1.436-.107.591-.16 1.3-.16 2.127 0 1.655.201 2.86.603 3.617.414.744.951 1.117 1.613 1.117Zm0 29.17c-1.146 0-2.038-.508-2.677-1.525-.638-1.016-.957-2.476-.957-4.379 0-1.903.319-3.35.957-4.343.639-.993 1.531-1.489 2.677-1.489 1.135 0 2.021.496 2.66 1.489.638.993.957 2.44.957 4.343s-.319 3.363-.957 4.379c-.639 1.017-1.525 1.525-2.66 1.525Zm0-1.17c.331 0 .627-.089.887-.266.272-.189.502-.473.691-.851.201-.39.355-.881.461-1.472.106-.602.16-1.317.16-2.145 0-.827-.054-1.536-.16-2.127-.106-.591-.26-1.07-.461-1.436-.189-.378-.419-.656-.691-.833a1.533 1.533 0 0 0-.887-.266c-.331 0-.632.088-.904.266-.272.177-.508.455-.709.833-.189.366-.337.845-.443 1.436-.107.591-.16 1.3-.16 2.127 0 1.655.201 2.86.603 3.617.414.744.951 1.117 1.613 1.117Zm0 29.17c-1.146 0-2.038-.508-2.677-1.525-.638-1.016-.957-2.476-.957-4.379 0-1.903.319-3.35.957-4.343.639-.993 1.531-1.489 2.677-1.489 1.135 0 2.021.496 2.66 1.489.638.993.957 2.44.957 4.343s-.319 3.363-.957 4.379c-.639 1.017-1.525 1.525-2.66 1.525Zm0-1.17c.331 0 .627-.089.887-.266.272-.189.502-.473.691-.851.201-.39.355-.881.461-1.472.106-.602.16-1.317.16-2.145 0-.827-.054-1.536-.16-2.127-.106-.591-.26-1.07-.461-1.436-.189-.378-.419-.656-.691-.833a1.533 1.533 0 0 0-.887-.266c-.331 0-.632.088-.904.266-.272.177-.508.455-.709.833-.189.366-.337.845-.443 1.436-.107.591-.16 1.3-.16 2.127 0 1.655.201 2.86.603 3.617.414.744.951 1.117 1.613 1.117ZM144.401 328v-1.206h2.588v-8.332h-2.057v-.939c.52-.095.97-.207 1.348-.337.39-.142.738-.308 1.046-.497h1.117v10.105h2.34V328h-6.382Zm0 28v-1.206h2.588v-8.332h-2.057v-.939c.52-.095.97-.207 1.348-.337.39-.142.738-.308 1.046-.497h1.117v10.105h2.34V356h-6.382Zm28.013-299.787c-1.146 0-2.038-.508-2.677-1.525-.638-1.016-.957-2.476-.957-4.379 0-1.903.319-3.35.957-4.343.639-.993 1.531-1.49 2.677-1.49 1.135 0 2.021.497 2.66 1.49.638.993.957 2.44.957 4.343s-.319 3.363-.957 4.38c-.639 1.016-1.525 1.524-2.66 1.524Zm0-1.17c.331 0 .627-.089.887-.266.272-.19.502-.473.691-.851.201-.39.355-.88.461-1.472.106-.602.16-1.318.16-2.145s-.054-1.536-.16-2.127c-.106-.591-.26-1.07-.461-1.436-.189-.378-.419-.656-.691-.833a1.538 1.538 0 0 0-.887-.266 1.62 1.62 0 0 0-.904.266c-.272.177-.508.455-.709.833-.189.366-.337.845-.443 1.436-.107.59-.16 1.3-.16 2.127 0 1.655.201 2.86.603 3.617.414.744.951 1.117 1.613 1.117ZM169.401 84v-1.206h2.588v-8.332h-2.057v-.94c.52-.094.97-.206 1.348-.336.39-.142.738-.308 1.046-.497h1.117v10.106h2.34V84h-6.382Zm0 28v-1.206h2.588v-8.332h-2.057v-.939c.52-.095.97-.207 1.348-.337.39-.142.738-.308 1.046-.497h1.117v10.105h2.34V112h-6.382Zm3.013 28.213c-1.146 0-2.038-.508-2.677-1.525-.638-1.016-.957-2.476-.957-4.379 0-1.903.319-3.35.957-4.343.639-.993 1.531-1.489 2.677-1.489 1.135 0 2.021.496 2.66 1.489.638.993.957 2.44.957 4.343s-.319 3.363-.957 4.379c-.639 1.017-1.525 1.525-2.66 1.525Zm0-1.17c.331 0 .627-.089.887-.266.272-.189.502-.473.691-.851.201-.39.355-.881.461-1.472.106-.602.16-1.317.16-2.145 0-.827-.054-1.536-.16-2.127-.106-.591-.26-1.07-.461-1.436-.189-.378-.419-.656-.691-.833a1.533 1.533 0 0 0-.887-.266c-.331 0-.632.088-.904.266-.272.177-.508.455-.709.833-.189.366-.337.845-.443 1.436-.107.591-.16 1.3-.16 2.127 0 1.655.201 2.86.603 3.617.414.744.951 1.117 1.613 1.117Zm0 29.17c-1.146 0-2.038-.508-2.677-1.525-.638-1.016-.957-2.476-.957-4.379 0-1.903.319-3.35.957-4.343.639-.993 1.531-1.489 2.677-1.489 1.135 0 2.021.496 2.66 1.489.638.993.957 2.44.957 4.343s-.319 3.363-.957 4.379c-.639 1.017-1.525 1.525-2.66 1.525Zm0-1.17c.331 0 .627-.089.887-.266.272-.189.502-.473.691-.851.201-.39.355-.881.461-1.472.106-.602.16-1.317.16-2.145 0-.827-.054-1.536-.16-2.127-.106-.591-.26-1.07-.461-1.436-.189-.378-.419-.656-.691-.833a1.533 1.533 0 0 0-.887-.266c-.331 0-.632.088-.904.266-.272.177-.508.455-.709.833-.189.366-.337.845-.443 1.436-.107.591-.16 1.3-.16 2.127 0 1.655.201 2.86.603 3.617.414.744.951 1.117 1.613 1.117ZM169.401 196v-1.206h2.588v-8.332h-2.057v-.939c.52-.095.97-.207 1.348-.337.39-.142.738-.308 1.046-.497h1.117v10.105h2.34V196h-6.382Zm3.013 28.213c-1.146 0-2.038-.508-2.677-1.525-.638-1.016-.957-2.476-.957-4.379 0-1.903.319-3.35.957-4.343.639-.993 1.531-1.489 2.677-1.489 1.135 0 2.021.496 2.66 1.489.638.993.957 2.44.957 4.343s-.319 3.363-.957 4.379c-.639 1.017-1.525 1.525-2.66 1.525Zm0-1.17c.331 0 .627-.089.887-.266.272-.189.502-.473.691-.851.201-.39.355-.881.461-1.472.106-.602.16-1.317.16-2.145 0-.827-.054-1.536-.16-2.127-.106-.591-.26-1.07-.461-1.436-.189-.378-.419-.656-.691-.833a1.533 1.533 0 0 0-.887-.266c-.331 0-.632.088-.904.266-.272.177-.508.455-.709.833-.189.366-.337.845-.443 1.436-.107.591-.16 1.3-.16 2.127 0 1.655.201 2.86.603 3.617.414.744.951 1.117 1.613 1.117ZM169.401 252v-1.206h2.588v-8.332h-2.057v-.939c.52-.095.97-.207 1.348-.337.39-.142.738-.308 1.046-.497h1.117v10.105h2.34V252h-6.382Zm3.013 28.213c-1.146 0-2.038-.508-2.677-1.525-.638-1.016-.957-2.476-.957-4.379 0-1.903.319-3.35.957-4.343.639-.993 1.531-1.489 2.677-1.489 1.135 0 2.021.496 2.66 1.489.638.993.957 2.44.957 4.343s-.319 3.363-.957 4.379c-.639 1.017-1.525 1.525-2.66 1.525Zm0-1.17c.331 0 .627-.089.887-.266.272-.189.502-.473.691-.851.201-.39.355-.881.461-1.472.106-.602.16-1.317.16-2.145 0-.827-.054-1.536-.16-2.127-.106-.591-.26-1.07-.461-1.436-.189-.378-.419-.656-.691-.833a1.533 1.533 0 0 0-.887-.266c-.331 0-.632.088-.904.266-.272.177-.508.455-.709.833-.189.366-.337.845-.443 1.436-.107.591-.16 1.3-.16 2.127 0 1.655.201 2.86.603 3.617.414.744.951 1.117 1.613 1.117Zm0 29.17c-1.146 0-2.038-.508-2.677-1.525-.638-1.016-.957-2.476-.957-4.379 0-1.903.319-3.35.957-4.343.639-.993 1.531-1.489 2.677-1.489 1.135 0 2.021.496 2.66 1.489.638.993.957 2.44.957 4.343s-.319 3.363-.957 4.379c-.639 1.017-1.525 1.525-2.66 1.525Zm0-1.17c.331 0 .627-.089.887-.266.272-.189.502-.473.691-.851.201-.39.355-.881.461-1.472.106-.602.16-1.317.16-2.145 0-.827-.054-1.536-.16-2.127-.106-.591-.26-1.07-.461-1.436-.189-.378-.419-.656-.691-.833a1.533 1.533 0 0 0-.887-.266c-.331 0-.632.088-.904.266-.272.177-.508.455-.709.833-.189.366-.337.845-.443 1.436-.107.591-.16 1.3-.16 2.127 0 1.655.201 2.86.603 3.617.414.744.951 1.117 1.613 1.117Zm0 29.17c-1.146 0-2.038-.508-2.677-1.525-.638-1.016-.957-2.476-.957-4.379 0-1.903.319-3.35.957-4.343.639-.993 1.531-1.489 2.677-1.489 1.135 0 2.021.496 2.66 1.489.638.993.957 2.44.957 4.343s-.319 3.363-.957 4.379c-.639 1.017-1.525 1.525-2.66 1.525Zm0-1.17c.331 0 .627-.089.887-.266.272-.189.502-.473.691-.851.201-.39.355-.881.461-1.472.106-.602.16-1.317.16-2.145 0-.827-.054-1.536-.16-2.127-.106-.591-.26-1.07-.461-1.436-.189-.378-.419-.656-.691-.833a1.533 1.533 0 0 0-.887-.266c-.331 0-.632.088-.904.266-.272.177-.508.455-.709.833-.189.366-.337.845-.443 1.436-.107.591-.16 1.3-.16 2.127 0 1.655.201 2.86.603 3.617.414.744.951 1.117 1.613 1.117ZM169.401 364v-1.206h2.588v-8.332h-2.057v-.939c.52-.095.97-.207 1.348-.337.39-.142.738-.308 1.046-.497h1.117v10.105h2.34V364h-6.382Zm0 28v-1.206h2.588v-8.332h-2.057v-.939c.52-.095.97-.207 1.348-.337.39-.142.738-.308 1.046-.497h1.117v10.105h2.34V392h-6.382Zm28.013-350.787c-1.146 0-2.038-.508-2.677-1.525-.638-1.016-.957-2.476-.957-4.379 0-1.903.319-3.35.957-4.343.639-.993 1.531-1.49 2.677-1.49 1.135 0 2.021.497 2.66 1.49.638.993.957 2.44.957 4.343s-.319 3.363-.957 4.38c-.639 1.016-1.525 1.524-2.66 1.524Zm0-1.17c.331 0 .627-.089.887-.266.272-.19.502-.473.691-.851.201-.39.355-.88.461-1.472.106-.602.16-1.318.16-2.145s-.054-1.536-.16-2.127c-.106-.591-.26-1.07-.461-1.436-.189-.378-.419-.656-.691-.833a1.538 1.538 0 0 0-.887-.266 1.62 1.62 0 0 0-.904.266c-.272.177-.508.455-.709.833-.189.366-.337.845-.443 1.436-.107.59-.16 1.3-.16 2.127 0 1.655.201 2.86.603 3.617.414.744.951 1.117 1.613 1.117ZM194.401 69v-1.206h2.588v-8.332h-2.057v-.94c.52-.094.97-.206 1.348-.336.39-.142.738-.308 1.046-.497h1.117v10.105h2.34V69h-6.382Zm0 28v-1.206h2.588v-8.332h-2.057v-.94c.52-.094.97-.206 1.348-.336.39-.142.738-.308 1.046-.497h1.117v10.106h2.34V97h-6.382Zm3.013 28.213c-1.146 0-2.038-.508-2.677-1.525-.638-1.016-.957-2.476-.957-4.379 0-1.903.319-3.35.957-4.343.639-.993 1.531-1.489 2.677-1.489 1.135 0 2.021.496 2.66 1.489.638.993.957 2.44.957 4.343s-.319 3.363-.957 4.379c-.639 1.017-1.525 1.525-2.66 1.525Zm0-1.17c.331 0 .627-.089.887-.266.272-.189.502-.473.691-.851.201-.39.355-.881.461-1.472.106-.602.16-1.317.16-2.145 0-.827-.054-1.536-.16-2.127-.106-.591-.26-1.07-.461-1.436-.189-.378-.419-.656-.691-.833a1.533 1.533 0 0 0-.887-.266c-.331 0-.632.088-.904.266-.272.177-.508.455-.709.833-.189.366-.337.845-.443 1.436-.107.591-.16 1.3-.16 2.127 0 1.655.201 2.86.603 3.617.414.744.951 1.117 1.613 1.117Zm0 29.17c-1.146 0-2.038-.508-2.677-1.525-.638-1.016-.957-2.476-.957-4.379 0-1.903.319-3.35.957-4.343.639-.993 1.531-1.489 2.677-1.489 1.135 0 2.021.496 2.66 1.489.638.993.957 2.44.957 4.343s-.319 3.363-.957 4.379c-.639 1.017-1.525 1.525-2.66 1.525Zm0-1.17c.331 0 .627-.089.887-.266.272-.189.502-.473.691-.851.201-.39.355-.881.461-1.472.106-.602.16-1.317.16-2.145 0-.827-.054-1.536-.16-2.127-.106-.591-.26-1.07-.461-1.436-.189-.378-.419-.656-.691-.833a1.533 1.533 0 0 0-.887-.266c-.331 0-.632.088-.904.266-.272.177-.508.455-.709.833-.189.366-.337.845-.443 1.436-.107.591-.16 1.3-.16 2.127 0 1.655.201 2.86.603 3.617.414.744.951 1.117 1.613 1.117ZM194.401 181v-1.206h2.588v-8.332h-2.057v-.939c.52-.095.97-.207 1.348-.337.39-.142.738-.308 1.046-.497h1.117v10.105h2.34V181h-6.382Zm3.013 28.213c-1.146 0-2.038-.508-2.677-1.525-.638-1.016-.957-2.476-.957-4.379 0-1.903.319-3.35.957-4.343.639-.993 1.531-1.489 2.677-1.489 1.135 0 2.021.496 2.66 1.489.638.993.957 2.44.957 4.343s-.319 3.363-.957 4.379c-.639 1.017-1.525 1.525-2.66 1.525Zm0-1.17c.331 0 .627-.089.887-.266.272-.189.502-.473.691-.851.201-.39.355-.881.461-1.472.106-.602.16-1.317.16-2.145 0-.827-.054-1.536-.16-2.127-.106-.591-.26-1.07-.461-1.436-.189-.378-.419-.656-.691-.833a1.533 1.533 0 0 0-.887-.266c-.331 0-.632.088-.904.266-.272.177-.508.455-.709.833-.189.366-.337.845-.443 1.436-.107.591-.16 1.3-.16 2.127 0 1.655.201 2.86.603 3.617.414.744.951 1.117 1.613 1.117ZM194.401 237v-1.206h2.588v-8.332h-2.057v-.939c.52-.095.97-.207 1.348-.337.39-.142.738-.308 1.046-.497h1.117v10.105h2.34V237h-6.382Zm3.013 28.213c-1.146 0-2.038-.508-2.677-1.525-.638-1.016-.957-2.476-.957-4.379 0-1.903.319-3.35.957-4.343.639-.993 1.531-1.489 2.677-1.489 1.135 0 2.021.496 2.66 1.489.638.993.957 2.44.957 4.343s-.319 3.363-.957 4.379c-.639 1.017-1.525 1.525-2.66 1.525Zm0-1.17c.331 0 .627-.089.887-.266.272-.189.502-.473.691-.851.201-.39.355-.881.461-1.472.106-.602.16-1.317.16-2.145 0-.827-.054-1.536-.16-2.127-.106-.591-.26-1.07-.461-1.436-.189-.378-.419-.656-.691-.833a1.533 1.533 0 0 0-.887-.266c-.331 0-.632.088-.904.266-.272.177-.508.455-.709.833-.189.366-.337.845-.443 1.436-.107.591-.16 1.3-.16 2.127 0 1.655.201 2.86.603 3.617.414.744.951 1.117 1.613 1.117Zm0 29.17c-1.146 0-2.038-.508-2.677-1.525-.638-1.016-.957-2.476-.957-4.379 0-1.903.319-3.35.957-4.343.639-.993 1.531-1.489 2.677-1.489 1.135 0 2.021.496 2.66 1.489.638.993.957 2.44.957 4.343s-.319 3.363-.957 4.379c-.639 1.017-1.525 1.525-2.66 1.525Zm0-1.17c.331 0 .627-.089.887-.266.272-.189.502-.473.691-.851.201-.39.355-.881.461-1.472.106-.602.16-1.317.16-2.145 0-.827-.054-1.536-.16-2.127-.106-.591-.26-1.07-.461-1.436-.189-.378-.419-.656-.691-.833a1.533 1.533 0 0 0-.887-.266c-.331 0-.632.088-.904.266-.272.177-.508.455-.709.833-.189.366-.337.845-.443 1.436-.107.591-.16 1.3-.16 2.127 0 1.655.201 2.86.603 3.617.414.744.951 1.117 1.613 1.117Zm0 29.17c-1.146 0-2.038-.508-2.677-1.525-.638-1.016-.957-2.476-.957-4.379 0-1.903.319-3.35.957-4.343.639-.993 1.531-1.489 2.677-1.489 1.135 0 2.021.496 2.66 1.489.638.993.957 2.44.957 4.343s-.319 3.363-.957 4.379c-.639 1.017-1.525 1.525-2.66 1.525Zm0-1.17c.331 0 .627-.089.887-.266.272-.189.502-.473.691-.851.201-.39.355-.881.461-1.472.106-.602.16-1.317.16-2.145 0-.827-.054-1.536-.16-2.127-.106-.591-.26-1.07-.461-1.436-.189-.378-.419-.656-.691-.833a1.533 1.533 0 0 0-.887-.266c-.331 0-.632.088-.904.266-.272.177-.508.455-.709.833-.189.366-.337.845-.443 1.436-.107.591-.16 1.3-.16 2.127 0 1.655.201 2.86.603 3.617.414.744.951 1.117 1.613 1.117ZM194.401 349v-1.206h2.588v-8.332h-2.057v-.939c.52-.095.97-.207 1.348-.337.39-.142.738-.308 1.046-.497h1.117v10.105h2.34V349h-6.382Zm0 28v-1.206h2.588v-8.332h-2.057v-.939c.52-.095.97-.207 1.348-.337.39-.142.738-.308 1.046-.497h1.117v10.105h2.34V377h-6.382Zm28.013-356.787c-1.146 0-2.038-.509-2.677-1.525-.638-1.016-.957-2.476-.957-4.379 0-1.903.319-3.35.957-4.343.639-.993 1.531-1.49 2.677-1.49 1.135 0 2.021.497 2.66 1.49.638.993.957 2.44.957 4.343s-.319 3.363-.957 4.38c-.639 1.015-1.525 1.524-2.66 1.524Zm0-1.17c.331 0 .627-.089.887-.266.272-.19.502-.473.691-.851.201-.39.355-.88.461-1.472.106-.602.16-1.318.16-2.145s-.054-1.536-.16-2.127c-.106-.591-.26-1.07-.461-1.436-.189-.378-.419-.656-.691-.833a1.538 1.538 0 0 0-.887-.266 1.62 1.62 0 0 0-.904.266c-.272.177-.508.455-.709.833-.189.366-.337.845-.443 1.436-.107.59-.16 1.3-.16 2.127 0 1.655.201 2.86.603 3.617.414.744.951 1.117 1.613 1.117ZM219.401 48v-1.206h2.588v-8.332h-2.057v-.94c.52-.094.97-.206 1.348-.336.39-.142.738-.308 1.046-.497h1.117v10.105h2.34V48h-6.382Zm0 28v-1.206h2.588v-8.332h-2.057v-.94c.52-.094.97-.206 1.348-.336.39-.142.738-.308 1.046-.497h1.117v10.106h2.34V76h-6.382Zm3.013 28.213c-1.146 0-2.038-.508-2.677-1.525-.638-1.016-.957-2.476-.957-4.379 0-1.903.319-3.35.957-4.343.639-.993 1.531-1.49 2.677-1.49 1.135 0 2.021.497 2.66 1.49.638.993.957 2.44.957 4.343s-.319 3.363-.957 4.379c-.639 1.017-1.525 1.525-2.66 1.525Zm0-1.17c.331 0 .627-.089.887-.266.272-.189.502-.473.691-.851.201-.39.355-.881.461-1.472.106-.602.16-1.317.16-2.145 0-.827-.054-1.536-.16-2.127-.106-.591-.26-1.07-.461-1.436-.189-.378-.419-.656-.691-.833a1.538 1.538 0 0 0-.887-.266 1.62 1.62 0 0 0-.904.266c-.272.177-.508.455-.709.833-.189.366-.337.845-.443 1.436-.107.59-.16 1.3-.16 2.127 0 1.655.201 2.86.603 3.617.414.744.951 1.117 1.613 1.117Zm0 29.17c-1.146 0-2.038-.508-2.677-1.525-.638-1.016-.957-2.476-.957-4.379 0-1.903.319-3.35.957-4.343.639-.993 1.531-1.489 2.677-1.489 1.135 0 2.021.496 2.66 1.489.638.993.957 2.44.957 4.343s-.319 3.363-.957 4.379c-.639 1.017-1.525 1.525-2.66 1.525Zm0-1.17c.331 0 .627-.089.887-.266.272-.189.502-.473.691-.851.201-.39.355-.881.461-1.472.106-.602.16-1.317.16-2.145 0-.827-.054-1.536-.16-2.127-.106-.591-.26-1.07-.461-1.436-.189-.378-.419-.656-.691-.833a1.533 1.533 0 0 0-.887-.266c-.331 0-.632.088-.904.266-.272.177-.508.455-.709.833-.189.366-.337.845-.443 1.436-.107.591-.16 1.3-.16 2.127 0 1.655.201 2.86.603 3.617.414.744.951 1.117 1.613 1.117ZM219.401 160v-1.206h2.588v-8.332h-2.057v-.939c.52-.095.97-.207 1.348-.337.39-.142.738-.308 1.046-.497h1.117v10.105h2.34V160h-6.382Zm3.013 28.213c-1.146 0-2.038-.508-2.677-1.525-.638-1.016-.957-2.476-.957-4.379 0-1.903.319-3.35.957-4.343.639-.993 1.531-1.489 2.677-1.489 1.135 0 2.021.496 2.66 1.489.638.993.957 2.44.957 4.343s-.319 3.363-.957 4.379c-.639 1.017-1.525 1.525-2.66 1.525Zm0-1.17c.331 0 .627-.089.887-.266.272-.189.502-.473.691-.851.201-.39.355-.881.461-1.472.106-.602.16-1.317.16-2.145 0-.827-.054-1.536-.16-2.127-.106-.591-.26-1.07-.461-1.436-.189-.378-.419-.656-.691-.833a1.533 1.533 0 0 0-.887-.266c-.331 0-.632.088-.904.266-.272.177-.508.455-.709.833-.189.366-.337.845-.443 1.436-.107.591-.16 1.3-.16 2.127 0 1.655.201 2.86.603 3.617.414.744.951 1.117 1.613 1.117ZM219.401 216v-1.206h2.588v-8.332h-2.057v-.939c.52-.095.97-.207 1.348-.337.39-.142.738-.308 1.046-.497h1.117v10.105h2.34V216h-6.382Zm3.013 28.213c-1.146 0-2.038-.508-2.677-1.525-.638-1.016-.957-2.476-.957-4.379 0-1.903.319-3.35.957-4.343.639-.993 1.531-1.489 2.677-1.489 1.135 0 2.021.496 2.66 1.489.638.993.957 2.44.957 4.343s-.319 3.363-.957 4.379c-.639 1.017-1.525 1.525-2.66 1.525Zm0-1.17c.331 0 .627-.089.887-.266.272-.189.502-.473.691-.851.201-.39.355-.881.461-1.472.106-.602.16-1.317.16-2.145 0-.827-.054-1.536-.16-2.127-.106-.591-.26-1.07-.461-1.436-.189-.378-.419-.656-.691-.833a1.533 1.533 0 0 0-.887-.266c-.331 0-.632.088-.904.266-.272.177-.508.455-.709.833-.189.366-.337.845-.443 1.436-.107.591-.16 1.3-.16 2.127 0 1.655.201 2.86.603 3.617.414.744.951 1.117 1.613 1.117Zm0 29.17c-1.146 0-2.038-.508-2.677-1.525-.638-1.016-.957-2.476-.957-4.379 0-1.903.319-3.35.957-4.343.639-.993 1.531-1.489 2.677-1.489 1.135 0 2.021.496 2.66 1.489.638.993.957 2.44.957 4.343s-.319 3.363-.957 4.379c-.639 1.017-1.525 1.525-2.66 1.525Zm0-1.17c.331 0 .627-.089.887-.266.272-.189.502-.473.691-.851.201-.39.355-.881.461-1.472.106-.602.16-1.317.16-2.145 0-.827-.054-1.536-.16-2.127-.106-.591-.26-1.07-.461-1.436-.189-.378-.419-.656-.691-.833a1.533 1.533 0 0 0-.887-.266c-.331 0-.632.088-.904.266-.272.177-.508.455-.709.833-.189.366-.337.845-.443 1.436-.107.591-.16 1.3-.16 2.127 0 1.655.201 2.86.603 3.617.414.744.951 1.117 1.613 1.117Zm0 29.17c-1.146 0-2.038-.508-2.677-1.525-.638-1.016-.957-2.476-.957-4.379 0-1.903.319-3.35.957-4.343.639-.993 1.531-1.489 2.677-1.489 1.135 0 2.021.496 2.66 1.489.638.993.957 2.44.957 4.343s-.319 3.363-.957 4.379c-.639 1.017-1.525 1.525-2.66 1.525Zm0-1.17c.331 0 .627-.089.887-.266.272-.189.502-.473.691-.851.201-.39.355-.881.461-1.472.106-.602.16-1.317.16-2.145 0-.827-.054-1.536-.16-2.127-.106-.591-.26-1.07-.461-1.436-.189-.378-.419-.656-.691-.833a1.533 1.533 0 0 0-.887-.266c-.331 0-.632.088-.904.266-.272.177-.508.455-.709.833-.189.366-.337.845-.443 1.436-.107.591-.16 1.3-.16 2.127 0 1.655.201 2.86.603 3.617.414.744.951 1.117 1.613 1.117ZM219.401 328v-1.206h2.588v-8.332h-2.057v-.939c.52-.095.97-.207 1.348-.337.39-.142.738-.308 1.046-.497h1.117v10.105h2.34V328h-6.382Zm0 28v-1.206h2.588v-8.332h-2.057v-.939c.52-.095.97-.207 1.348-.337.39-.142.738-.308 1.046-.497h1.117v10.105h2.34V356h-6.382Zm28.013-335.787c-1.146 0-2.038-.509-2.677-1.525-.638-1.016-.957-2.476-.957-4.379 0-1.903.319-3.35.957-4.343.639-.993 1.531-1.49 2.677-1.49 1.135 0 2.021.497 2.66 1.49.638.993.957 2.44.957 4.343s-.319 3.363-.957 4.38c-.639 1.015-1.525 1.524-2.66 1.524Zm0-1.17c.331 0 .627-.089.887-.266.272-.19.502-.473.691-.851.201-.39.355-.88.461-1.472.106-.602.16-1.318.16-2.145s-.054-1.536-.16-2.127c-.106-.591-.26-1.07-.461-1.436-.189-.378-.419-.656-.691-.833a1.538 1.538 0 0 0-.887-.266 1.62 1.62 0 0 0-.904.266c-.272.177-.508.455-.709.833-.189.366-.337.845-.443 1.436-.107.59-.16 1.3-.16 2.127 0 1.655.201 2.86.603 3.617.414.744.951 1.117 1.613 1.117ZM244.401 48v-1.206h2.588v-8.332h-2.057v-.94c.52-.094.97-.206 1.348-.336.39-.142.738-.308 1.046-.497h1.117v10.105h2.34V48h-6.382Zm0 28v-1.206h2.588v-8.332h-2.057v-.94c.52-.094.97-.206 1.348-.336.39-.142.738-.308 1.046-.497h1.117v10.106h2.34V76h-6.382Zm3.013 28.213c-1.146 0-2.038-.508-2.677-1.525-.638-1.016-.957-2.476-.957-4.379 0-1.903.319-3.35.957-4.343.639-.993 1.531-1.49 2.677-1.49 1.135 0 2.021.497 2.66 1.49.638.993.957 2.44.957 4.343s-.319 3.363-.957 4.379c-.639 1.017-1.525 1.525-2.66 1.525Zm0-1.17c.331 0 .627-.089.887-.266.272-.189.502-.473.691-.851.201-.39.355-.881.461-1.472.106-.602.16-1.317.16-2.145 0-.827-.054-1.536-.16-2.127-.106-.591-.26-1.07-.461-1.436-.189-.378-.419-.656-.691-.833a1.538 1.538 0 0 0-.887-.266 1.62 1.62 0 0 0-.904.266c-.272.177-.508.455-.709.833-.189.366-.337.845-.443 1.436-.107.59-.16 1.3-.16 2.127 0 1.655.201 2.86.603 3.617.414.744.951 1.117 1.613 1.117Zm0 29.17c-1.146 0-2.038-.508-2.677-1.525-.638-1.016-.957-2.476-.957-4.379 0-1.903.319-3.35.957-4.343.639-.993 1.531-1.489 2.677-1.489 1.135 0 2.021.496 2.66 1.489.638.993.957 2.44.957 4.343s-.319 3.363-.957 4.379c-.639 1.017-1.525 1.525-2.66 1.525Zm0-1.17c.331 0 .627-.089.887-.266.272-.189.502-.473.691-.851.201-.39.355-.881.461-1.472.106-.602.16-1.317.16-2.145 0-.827-.054-1.536-.16-2.127-.106-.591-.26-1.07-.461-1.436-.189-.378-.419-.656-.691-.833a1.533 1.533 0 0 0-.887-.266c-.331 0-.632.088-.904.266-.272.177-.508.455-.709.833-.189.366-.337.845-.443 1.436-.107.591-.16 1.3-.16 2.127 0 1.655.201 2.86.603 3.617.414.744.951 1.117 1.613 1.117ZM244.401 160v-1.206h2.588v-8.332h-2.057v-.939c.52-.095.97-.207 1.348-.337.39-.142.738-.308 1.046-.497h1.117v10.105h2.34V160h-6.382Zm3.013 28.213c-1.146 0-2.038-.508-2.677-1.525-.638-1.016-.957-2.476-.957-4.379 0-1.903.319-3.35.957-4.343.639-.993 1.531-1.489 2.677-1.489 1.135 0 2.021.496 2.66 1.489.638.993.957 2.44.957 4.343s-.319 3.363-.957 4.379c-.639 1.017-1.525 1.525-2.66 1.525Zm0-1.17c.331 0 .627-.089.887-.266.272-.189.502-.473.691-.851.201-.39.355-.881.461-1.472.106-.602.16-1.317.16-2.145 0-.827-.054-1.536-.16-2.127-.106-.591-.26-1.07-.461-1.436-.189-.378-.419-.656-.691-.833a1.533 1.533 0 0 0-.887-.266c-.331 0-.632.088-.904.266-.272.177-.508.455-.709.833-.189.366-.337.845-.443 1.436-.107.591-.16 1.3-.16 2.127 0 1.655.201 2.86.603 3.617.414.744.951 1.117 1.613 1.117ZM244.401 216v-1.206h2.588v-8.332h-2.057v-.939c.52-.095.97-.207 1.348-.337.39-.142.738-.308 1.046-.497h1.117v10.105h2.34V216h-6.382Zm3.013 28.213c-1.146 0-2.038-.508-2.677-1.525-.638-1.016-.957-2.476-.957-4.379 0-1.903.319-3.35.957-4.343.639-.993 1.531-1.489 2.677-1.489 1.135 0 2.021.496 2.66 1.489.638.993.957 2.44.957 4.343s-.319 3.363-.957 4.379c-.639 1.017-1.525 1.525-2.66 1.525Zm0-1.17c.331 0 .627-.089.887-.266.272-.189.502-.473.691-.851.201-.39.355-.881.461-1.472.106-.602.16-1.317.16-2.145 0-.827-.054-1.536-.16-2.127-.106-.591-.26-1.07-.461-1.436-.189-.378-.419-.656-.691-.833a1.533 1.533 0 0 0-.887-.266c-.331 0-.632.088-.904.266-.272.177-.508.455-.709.833-.189.366-.337.845-.443 1.436-.107.591-.16 1.3-.16 2.127 0 1.655.201 2.86.603 3.617.414.744.951 1.117 1.613 1.117Zm0 29.17c-1.146 0-2.038-.508-2.677-1.525-.638-1.016-.957-2.476-.957-4.379 0-1.903.319-3.35.957-4.343.639-.993 1.531-1.489 2.677-1.489 1.135 0 2.021.496 2.66 1.489.638.993.957 2.44.957 4.343s-.319 3.363-.957 4.379c-.639 1.017-1.525 1.525-2.66 1.525Zm0-1.17c.331 0 .627-.089.887-.266.272-.189.502-.473.691-.851.201-.39.355-.881.461-1.472.106-.602.16-1.317.16-2.145 0-.827-.054-1.536-.16-2.127-.106-.591-.26-1.07-.461-1.436-.189-.378-.419-.656-.691-.833a1.533 1.533 0 0 0-.887-.266c-.331 0-.632.088-.904.266-.272.177-.508.455-.709.833-.189.366-.337.845-.443 1.436-.107.591-.16 1.3-.16 2.127 0 1.655.201 2.86.603 3.617.414.744.951 1.117 1.613 1.117Zm0 29.17c-1.146 0-2.038-.508-2.677-1.525-.638-1.016-.957-2.476-.957-4.379 0-1.903.319-3.35.957-4.343.639-.993 1.531-1.489 2.677-1.489 1.135 0 2.021.496 2.66 1.489.638.993.957 2.44.957 4.343s-.319 3.363-.957 4.379c-.639 1.017-1.525 1.525-2.66 1.525Zm0-1.17c.331 0 .627-.089.887-.266.272-.189.502-.473.691-.851.201-.39.355-.881.461-1.472.106-.602.16-1.317.16-2.145 0-.827-.054-1.536-.16-2.127-.106-.591-.26-1.07-.461-1.436-.189-.378-.419-.656-.691-.833a1.533 1.533 0 0 0-.887-.266c-.331 0-.632.088-.904.266-.272.177-.508.455-.709.833-.189.366-.337.845-.443 1.436-.107.591-.16 1.3-.16 2.127 0 1.655.201 2.86.603 3.617.414.744.951 1.117 1.613 1.117ZM244.401 328v-1.206h2.588v-8.332h-2.057v-.939c.52-.095.97-.207 1.348-.337.39-.142.738-.308 1.046-.497h1.117v10.105h2.34V328h-6.382Zm0 28v-1.206h2.588v-8.332h-2.057v-.939c.52-.095.97-.207 1.348-.337.39-.142.738-.308 1.046-.497h1.117v10.105h2.34V356h-6.382Zm28.013-314.787c-1.146 0-2.038-.508-2.677-1.525-.638-1.016-.957-2.476-.957-4.379 0-1.903.319-3.35.957-4.343.639-.993 1.531-1.49 2.677-1.49 1.135 0 2.021.497 2.66 1.49.638.993.957 2.44.957 4.343s-.319 3.363-.957 4.38c-.639 1.016-1.525 1.524-2.66 1.524Zm0-1.17c.331 0 .627-.089.887-.266.272-.19.502-.473.691-.851.201-.39.355-.88.461-1.472.106-.602.16-1.318.16-2.145s-.054-1.536-.16-2.127c-.106-.591-.26-1.07-.461-1.436-.189-.378-.419-.656-.691-.833a1.538 1.538 0 0 0-.887-.266 1.62 1.62 0 0 0-.904.266c-.272.177-.508.455-.709.833-.189.366-.337.845-.443 1.436-.107.59-.16 1.3-.16 2.127 0 1.655.201 2.86.603 3.617.414.744.951 1.117 1.613 1.117ZM269.401 69v-1.206h2.588v-8.332h-2.057v-.94c.52-.094.97-.206 1.348-.336.39-.142.738-.308 1.046-.497h1.117v10.105h2.34V69h-6.382Zm0 28v-1.206h2.588v-8.332h-2.057v-.94c.52-.094.97-.206 1.348-.336.39-.142.738-.308 1.046-.497h1.117v10.106h2.34V97h-6.382Zm3.013 28.213c-1.146 0-2.038-.508-2.677-1.525-.638-1.016-.957-2.476-.957-4.379 0-1.903.319-3.35.957-4.343.639-.993 1.531-1.489 2.677-1.489 1.135 0 2.021.496 2.66 1.489.638.993.957 2.44.957 4.343s-.319 3.363-.957 4.379c-.639 1.017-1.525 1.525-2.66 1.525Zm0-1.17c.331 0 .627-.089.887-.266.272-.189.502-.473.691-.851.201-.39.355-.881.461-1.472.106-.602.16-1.317.16-2.145 0-.827-.054-1.536-.16-2.127-.106-.591-.26-1.07-.461-1.436-.189-.378-.419-.656-.691-.833a1.533 1.533 0 0 0-.887-.266c-.331 0-.632.088-.904.266-.272.177-.508.455-.709.833-.189.366-.337.845-.443 1.436-.107.591-.16 1.3-.16 2.127 0 1.655.201 2.86.603 3.617.414.744.951 1.117 1.613 1.117Zm0 29.17c-1.146 0-2.038-.508-2.677-1.525-.638-1.016-.957-2.476-.957-4.379 0-1.903.319-3.35.957-4.343.639-.993 1.531-1.489 2.677-1.489 1.135 0 2.021.496 2.66 1.489.638.993.957 2.44.957 4.343s-.319 3.363-.957 4.379c-.639 1.017-1.525 1.525-2.66 1.525Zm0-1.17c.331 0 .627-.089.887-.266.272-.189.502-.473.691-.851.201-.39.355-.881.461-1.472.106-.602.16-1.317.16-2.145 0-.827-.054-1.536-.16-2.127-.106-.591-.26-1.07-.461-1.436-.189-.378-.419-.656-.691-.833a1.533 1.533 0 0 0-.887-.266c-.331 0-.632.088-.904.266-.272.177-.508.455-.709.833-.189.366-.337.845-.443 1.436-.107.591-.16 1.3-.16 2.127 0 1.655.201 2.86.603 3.617.414.744.951 1.117 1.613 1.117ZM269.401 181v-1.206h2.588v-8.332h-2.057v-.939c.52-.095.97-.207 1.348-.337.39-.142.738-.308 1.046-.497h1.117v10.105h2.34V181h-6.382Zm3.013 28.213c-1.146 0-2.038-.508-2.677-1.525-.638-1.016-.957-2.476-.957-4.379 0-1.903.319-3.35.957-4.343.639-.993 1.531-1.489 2.677-1.489 1.135 0 2.021.496 2.66 1.489.638.993.957 2.44.957 4.343s-.319 3.363-.957 4.379c-.639 1.017-1.525 1.525-2.66 1.525Zm0-1.17c.331 0 .627-.089.887-.266.272-.189.502-.473.691-.851.201-.39.355-.881.461-1.472.106-.602.16-1.317.16-2.145 0-.827-.054-1.536-.16-2.127-.106-.591-.26-1.07-.461-1.436-.189-.378-.419-.656-.691-.833a1.533 1.533 0 0 0-.887-.266c-.331 0-.632.088-.904.266-.272.177-.508.455-.709.833-.189.366-.337.845-.443 1.436-.107.591-.16 1.3-.16 2.127 0 1.655.201 2.86.603 3.617.414.744.951 1.117 1.613 1.117ZM269.401 237v-1.206h2.588v-8.332h-2.057v-.939c.52-.095.97-.207 1.348-.337.39-.142.738-.308 1.046-.497h1.117v10.105h2.34V237h-6.382Zm3.013 28.213c-1.146 0-2.038-.508-2.677-1.525-.638-1.016-.957-2.476-.957-4.379 0-1.903.319-3.35.957-4.343.639-.993 1.531-1.489 2.677-1.489 1.135 0 2.021.496 2.66 1.489.638.993.957 2.44.957 4.343s-.319 3.363-.957 4.379c-.639 1.017-1.525 1.525-2.66 1.525Zm0-1.17c.331 0 .627-.089.887-.266.272-.189.502-.473.691-.851.201-.39.355-.881.461-1.472.106-.602.16-1.317.16-2.145 0-.827-.054-1.536-.16-2.127-.106-.591-.26-1.07-.461-1.436-.189-.378-.419-.656-.691-.833a1.533 1.533 0 0 0-.887-.266c-.331 0-.632.088-.904.266-.272.177-.508.455-.709.833-.189.366-.337.845-.443 1.436-.107.591-.16 1.3-.16 2.127 0 1.655.201 2.86.603 3.617.414.744.951 1.117 1.613 1.117Zm0 29.17c-1.146 0-2.038-.508-2.677-1.525-.638-1.016-.957-2.476-.957-4.379 0-1.903.319-3.35.957-4.343.639-.993 1.531-1.489 2.677-1.489 1.135 0 2.021.496 2.66 1.489.638.993.957 2.44.957 4.343s-.319 3.363-.957 4.379c-.639 1.017-1.525 1.525-2.66 1.525Zm0-1.17c.331 0 .627-.089.887-.266.272-.189.502-.473.691-.851.201-.39.355-.881.461-1.472.106-.602.16-1.317.16-2.145 0-.827-.054-1.536-.16-2.127-.106-.591-.26-1.07-.461-1.436-.189-.378-.419-.656-.691-.833a1.533 1.533 0 0 0-.887-.266c-.331 0-.632.088-.904.266-.272.177-.508.455-.709.833-.189.366-.337.845-.443 1.436-.107.591-.16 1.3-.16 2.127 0 1.655.201 2.86.603 3.617.414.744.951 1.117 1.613 1.117Zm0 29.17c-1.146 0-2.038-.508-2.677-1.525-.638-1.016-.957-2.476-.957-4.379 0-1.903.319-3.35.957-4.343.639-.993 1.531-1.489 2.677-1.489 1.135 0 2.021.496 2.66 1.489.638.993.957 2.44.957 4.343s-.319 3.363-.957 4.379c-.639 1.017-1.525 1.525-2.66 1.525Zm0-1.17c.331 0 .627-.089.887-.266.272-.189.502-.473.691-.851.201-.39.355-.881.461-1.472.106-.602.16-1.317.16-2.145 0-.827-.054-1.536-.16-2.127-.106-.591-.26-1.07-.461-1.436-.189-.378-.419-.656-.691-.833a1.533 1.533 0 0 0-.887-.266c-.331 0-.632.088-.904.266-.272.177-.508.455-.709.833-.189.366-.337.845-.443 1.436-.107.591-.16 1.3-.16 2.127 0 1.655.201 2.86.603 3.617.414.744.951 1.117 1.613 1.117ZM269.401 349v-1.206h2.588v-8.332h-2.057v-.939c.52-.095.97-.207 1.348-.337.39-.142.738-.308 1.046-.497h1.117v10.105h2.34V349h-6.382Zm0 28v-1.206h2.588v-8.332h-2.057v-.939c.52-.095.97-.207 1.348-.337.39-.142.738-.308 1.046-.497h1.117v10.105h2.34V377h-6.382Zm28.013-320.787c-1.146 0-2.038-.508-2.677-1.525-.638-1.016-.957-2.476-.957-4.379 0-1.903.319-3.35.957-4.343.639-.993 1.531-1.49 2.677-1.49 1.135 0 2.021.497 2.66 1.49.638.993.957 2.44.957 4.343s-.319 3.363-.957 4.38c-.639 1.016-1.525 1.524-2.66 1.524Zm0-1.17c.331 0 .627-.089.887-.266.272-.19.502-.473.691-.851.201-.39.355-.88.461-1.472.106-.602.16-1.318.16-2.145s-.054-1.536-.16-2.127c-.106-.591-.26-1.07-.461-1.436-.189-.378-.419-.656-.691-.833a1.538 1.538 0 0 0-.887-.266 1.62 1.62 0 0 0-.904.266c-.272.177-.508.455-.709.833-.189.366-.337.845-.443 1.436-.107.59-.16 1.3-.16 2.127 0 1.655.201 2.86.603 3.617.414.744.951 1.117 1.613 1.117ZM294.401 84v-1.206h2.588v-8.332h-2.057v-.94c.52-.094.97-.206 1.348-.336.39-.142.738-.308 1.046-.497h1.117v10.106h2.34V84h-6.382Zm0 28v-1.206h2.588v-8.332h-2.057v-.939c.52-.095.97-.207 1.348-.337.39-.142.738-.308 1.046-.497h1.117v10.105h2.34V112h-6.382Zm3.013 28.213c-1.146 0-2.038-.508-2.677-1.525-.638-1.016-.957-2.476-.957-4.379 0-1.903.319-3.35.957-4.343.639-.993 1.531-1.489 2.677-1.489 1.135 0 2.021.496 2.66 1.489.638.993.957 2.44.957 4.343s-.319 3.363-.957 4.379c-.639 1.017-1.525 1.525-2.66 1.525Zm0-1.17c.331 0 .627-.089.887-.266.272-.189.502-.473.691-.851.201-.39.355-.881.461-1.472.106-.602.16-1.317.16-2.145 0-.827-.054-1.536-.16-2.127-.106-.591-.26-1.07-.461-1.436-.189-.378-.419-.656-.691-.833a1.533 1.533 0 0 0-.887-.266c-.331 0-.632.088-.904.266-.272.177-.508.455-.709.833-.189.366-.337.845-.443 1.436-.107.591-.16 1.3-.16 2.127 0 1.655.201 2.86.603 3.617.414.744.951 1.117 1.613 1.117Zm0 29.17c-1.146 0-2.038-.508-2.677-1.525-.638-1.016-.957-2.476-.957-4.379 0-1.903.319-3.35.957-4.343.639-.993 1.531-1.489 2.677-1.489 1.135 0 2.021.496 2.66 1.489.638.993.957 2.44.957 4.343s-.319 3.363-.957 4.379c-.639 1.017-1.525 1.525-2.66 1.525Zm0-1.17c.331 0 .627-.089.887-.266.272-.189.502-.473.691-.851.201-.39.355-.881.461-1.472.106-.602.16-1.317.16-2.145 0-.827-.054-1.536-.16-2.127-.106-.591-.26-1.07-.461-1.436-.189-.378-.419-.656-.691-.833a1.533 1.533 0 0 0-.887-.266c-.331 0-.632.088-.904.266-.272.177-.508.455-.709.833-.189.366-.337.845-.443 1.436-.107.591-.16 1.3-.16 2.127 0 1.655.201 2.86.603 3.617.414.744.951 1.117 1.613 1.117ZM294.401 196v-1.206h2.588v-8.332h-2.057v-.939c.52-.095.97-.207 1.348-.337.39-.142.738-.308 1.046-.497h1.117v10.105h2.34V196h-6.382Zm3.013 28.213c-1.146 0-2.038-.508-2.677-1.525-.638-1.016-.957-2.476-.957-4.379 0-1.903.319-3.35.957-4.343.639-.993 1.531-1.489 2.677-1.489 1.135 0 2.021.496 2.66 1.489.638.993.957 2.44.957 4.343s-.319 3.363-.957 4.379c-.639 1.017-1.525 1.525-2.66 1.525Zm0-1.17c.331 0 .627-.089.887-.266.272-.189.502-.473.691-.851.201-.39.355-.881.461-1.472.106-.602.16-1.317.16-2.145 0-.827-.054-1.536-.16-2.127-.106-.591-.26-1.07-.461-1.436-.189-.378-.419-.656-.691-.833a1.533 1.533 0 0 0-.887-.266c-.331 0-.632.088-.904.266-.272.177-.508.455-.709.833-.189.366-.337.845-.443 1.436-.107.591-.16 1.3-.16 2.127 0 1.655.201 2.86.603 3.617.414.744.951 1.117 1.613 1.117ZM294.401 252v-1.206h2.588v-8.332h-2.057v-.939c.52-.095.97-.207 1.348-.337.39-.142.738-.308 1.046-.497h1.117v10.105h2.34V252h-6.382Zm3.013 28.213c-1.146 0-2.038-.508-2.677-1.525-.638-1.016-.957-2.476-.957-4.379 0-1.903.319-3.35.957-4.343.639-.993 1.531-1.489 2.677-1.489 1.135 0 2.021.496 2.66 1.489.638.993.957 2.44.957 4.343s-.319 3.363-.957 4.379c-.639 1.017-1.525 1.525-2.66 1.525Zm0-1.17c.331 0 .627-.089.887-.266.272-.189.502-.473.691-.851.201-.39.355-.881.461-1.472.106-.602.16-1.317.16-2.145 0-.827-.054-1.536-.16-2.127-.106-.591-.26-1.07-.461-1.436-.189-.378-.419-.656-.691-.833a1.533 1.533 0 0 0-.887-.266c-.331 0-.632.088-.904.266-.272.177-.508.455-.709.833-.189.366-.337.845-.443 1.436-.107.591-.16 1.3-.16 2.127 0 1.655.201 2.86.603 3.617.414.744.951 1.117 1.613 1.117Zm0 29.17c-1.146 0-2.038-.508-2.677-1.525-.638-1.016-.957-2.476-.957-4.379 0-1.903.319-3.35.957-4.343.639-.993 1.531-1.489 2.677-1.489 1.135 0 2.021.496 2.66 1.489.638.993.957 2.44.957 4.343s-.319 3.363-.957 4.379c-.639 1.017-1.525 1.525-2.66 1.525Zm0-1.17c.331 0 .627-.089.887-.266.272-.189.502-.473.691-.851.201-.39.355-.881.461-1.472.106-.602.16-1.317.16-2.145 0-.827-.054-1.536-.16-2.127-.106-.591-.26-1.07-.461-1.436-.189-.378-.419-.656-.691-.833a1.533 1.533 0 0 0-.887-.266c-.331 0-.632.088-.904.266-.272.177-.508.455-.709.833-.189.366-.337.845-.443 1.436-.107.591-.16 1.3-.16 2.127 0 1.655.201 2.86.603 3.617.414.744.951 1.117 1.613 1.117Zm0 29.17c-1.146 0-2.038-.508-2.677-1.525-.638-1.016-.957-2.476-.957-4.379 0-1.903.319-3.35.957-4.343.639-.993 1.531-1.489 2.677-1.489 1.135 0 2.021.496 2.66 1.489.638.993.957 2.44.957 4.343s-.319 3.363-.957 4.379c-.639 1.017-1.525 1.525-2.66 1.525Zm0-1.17c.331 0 .627-.089.887-.266.272-.189.502-.473.691-.851.201-.39.355-.881.461-1.472.106-.602.16-1.317.16-2.145 0-.827-.054-1.536-.16-2.127-.106-.591-.26-1.07-.461-1.436-.189-.378-.419-.656-.691-.833a1.533 1.533 0 0 0-.887-.266c-.331 0-.632.088-.904.266-.272.177-.508.455-.709.833-.189.366-.337.845-.443 1.436-.107.591-.16 1.3-.16 2.127 0 1.655.201 2.86.603 3.617.414.744.951 1.117 1.613 1.117ZM294.401 364v-1.206h2.588v-8.332h-2.057v-.939c.52-.095.97-.207 1.348-.337.39-.142.738-.308 1.046-.497h1.117v10.105h2.34V364h-6.382Zm0 28v-1.206h2.588v-8.332h-2.057v-.939c.52-.095.97-.207 1.348-.337.39-.142.738-.308 1.046-.497h1.117v10.105h2.34V392h-6.382Z"/>
</svg>
